<?xml version="1.0" standalone="no"?>
<!DOCTYPE svg PUBLIC "-//W3C//DTD SVG 20010904//EN"
 "http://www.w3.org/TR/2001/REC-SVG-20010904/DTD/svg10.dtd">
<svg version="1.0" xmlns="http://www.w3.org/2000/svg"
 width="1080.000000pt" height="1920.000000pt" viewBox="0 0 1080.000000 1920.000000"
 preserveAspectRatio="xMidYMid meet">

<g transform="translate(0.000000,1920.000000) scale(0.100000,-0.100000)"
fill="#000000" stroke="none">
<path d="M10045 17855 c-14 -13 -25 -29 -25 -35 0 -14 46 -60 60 -60 14 0 60
46 60 60 0 14 -46 60 -60 60 -6 0 -22 -11 -35 -25z"/>
<path d="M1930 17640 c0 -153 2 -180 15 -180 12 0 15 17 15 90 0 101 15 130
68 130 46 0 52 -15 52 -122 0 -91 1 -98 20 -98 19 0 20 7 20 103 0 112 -10
140 -55 151 -14 4 -41 0 -61 -9 -20 -8 -38 -15 -40 -15 -2 0 -4 29 -4 65 0 51
-3 65 -15 65 -13 0 -15 -27 -15 -180z"/>
<path d="M2450 17640 c0 -173 1 -180 20 -180 11 0 20 7 20 16 0 14 2 14 22 0
58 -41 131 -6 148 70 25 110 -50 201 -131 160 -18 -9 -34 -16 -36 -16 -1 0 -3
29 -3 65 0 58 -2 65 -20 65 -19 0 -20 -7 -20 -180z m152 23 c23 -27 30 -69 18
-113 -16 -61 -65 -78 -107 -38 -18 17 -23 32 -23 73 0 65 20 95 64 95 19 0 39
-7 48 -17z"/>
<path d="M1640 17780 c0 -13 7 -20 20 -20 13 0 20 7 20 20 0 13 -7 20 -20 20
-13 0 -20 -7 -20 -20z"/>
<path d="M1770 17740 c0 -25 -4 -30 -25 -30 -16 0 -25 -6 -25 -15 0 -9 9 -15
25 -15 25 0 25 0 25 -94 0 -106 10 -126 61 -126 35 0 41 27 7 32 -22 3 -23 8
-26 96 l-3 92 26 0 c16 0 25 6 25 15 0 9 -9 15 -25 15 -21 0 -25 5 -25 30 0
23 -4 30 -20 30 -16 0 -20 -7 -20 -30z"/>
<path d="M1404 17706 c-31 -14 -52 -50 -55 -96 -4 -70 2 -92 31 -122 26 -25
36 -29 68 -26 20 3 45 8 55 13 16 7 17 4 11 -21 -4 -16 -11 -34 -16 -41 -16
-20 -58 -24 -91 -8 -38 19 -62 4 -31 -19 47 -36 121 -31 154 11 18 23 20 41
20 169 0 118 -3 144 -14 144 -8 0 -16 -5 -18 -11 -2 -6 -14 -5 -33 5 -36 19
-41 19 -81 2z m100 -48 c24 -34 21 -123 -4 -148 -39 -39 -94 -20 -110 38 -10
40 -1 91 21 118 19 23 75 18 93 -8z"/>
<path d="M2933 17713 c-31 -6 -69 -54 -77 -97 -9 -49 9 -111 41 -135 55 -44
163 -11 163 50 0 17 -23 9 -46 -16 -32 -35 -78 -34 -101 2 -24 37 -23 115 2
143 26 29 86 24 100 -7 5 -13 18 -23 27 -23 38 0 10 56 -37 76 -19 8 -38 13
-42 13 -4 -1 -18 -4 -30 -6z"/>
<path d="M3173 17706 c-63 -28 -87 -106 -55 -179 23 -52 45 -67 99 -67 66 0
113 52 113 125 0 96 -78 155 -157 121z m97 -53 c42 -54 11 -163 -47 -163 -74
0 -106 93 -57 168 22 33 76 30 104 -5z"/>
<path d="M3485 17713 c-11 -3 -26 -10 -34 -17 -11 -8 -15 -8 -18 2 -3 6 -13
12 -24 12 -18 0 -19 -8 -19 -125 0 -118 1 -125 20 -125 19 0 20 7 20 93 0 105
11 127 66 127 48 0 54 -14 54 -122 0 -91 1 -98 20 -98 19 0 20 7 20 93 0 106
11 127 68 127 43 0 52 -22 52 -129 0 -86 1 -91 21 -91 20 0 21 4 17 104 -2 83
-7 108 -21 124 -28 31 -64 36 -108 14 -30 -15 -41 -16 -51 -7 -16 15 -56 24
-83 18z"/>
<path d="M1640 17585 c0 -118 1 -125 20 -125 19 0 20 7 20 125 0 118 -1 125
-20 125 -19 0 -20 -7 -20 -125z"/>
<path d="M2182 17603 c4 -95 7 -108 28 -125 24 -20 80 -24 111 -8 13 7 19 7
19 0 0 -5 9 -10 20 -10 19 0 20 7 20 125 0 118 -1 125 -20 125 -19 0 -20 -7
-20 -94 0 -87 -2 -96 -22 -110 -32 -22 -64 -20 -82 6 -12 16 -16 47 -16 110 0
83 -1 88 -21 88 -21 0 -21 -3 -17 -107z"/>
<path d="M10045 17675 c-14 -13 -25 -29 -25 -35 0 -14 46 -60 60 -60 14 0 60
46 60 60 0 14 -46 60 -60 60 -6 0 -22 -11 -35 -25z"/>
<path d="M10045 17495 c-14 -13 -25 -29 -25 -35 0 -14 46 -60 60 -60 14 0 60
46 60 60 0 14 -46 60 -60 60 -6 0 -22 -11 -35 -25z"/>
<path d="M2737 17503 c-15 -14 -7 -43 12 -43 23 0 34 23 18 39 -13 13 -21 14
-30 4z"/>
<path d="M0 16460 l0 -340 5400 0 5400 0 0 340 0 340 -5400 0 -5400 0 0 -340z
m521 154 c123 -62 128 -248 8 -310 -38 -19 -49 -12 -49 37 0 32 4 41 23 48 42
16 50 35 42 107 -6 61 -8 65 -28 60 -36 -11 -121 -12 -134 -3 -18 13 -46 0
-40 -17 3 -8 1 -28 -5 -44 -17 -43 -3 -80 36 -99 21 -10 32 -21 29 -29 -8 -20
-37 -17 -58 6 -28 31 -38 24 -13 -10 13 -18 31 -30 45 -30 16 0 23 -6 23 -20
0 -25 -14 -25 -55 0 -88 54 -106 179 -39 260 55 65 139 82 215 44z m9823 -60
c9 -3 16 -17 16 -30 0 -23 -3 -24 -60 -24 -51 0 -60 3 -60 18 0 10 5 23 12 30
13 13 66 16 92 6z m-854 -33 c5 -11 10 -31 10 -45 0 -13 7 -32 16 -40 26 -26
6 -36 -73 -36 -74 0 -75 1 -68 23 3 12 10 39 15 61 4 21 14 42 21 47 25 16 68
10 79 -10z m-8470 -16 c14 -17 0 -21 -17 -4 -12 12 -43 6 -43 -9 0 -4 16 -15
35 -24 34 -15 36 -15 46 3 11 22 39 25 57 7 20 -20 14 -28 -19 -28 -20 0 -29
-4 -26 -12 2 -7 16 -12 31 -11 14 1 24 -2 21 -8 -10 -14 -55 -11 -61 6 -5 13
-8 13 -21 -1 -19 -18 -65 -15 -71 6 -5 13 -3 13 11 1 18 -14 47 -9 47 9 0 5
-16 16 -35 24 -37 16 -42 25 -23 44 17 17 53 15 68 -3z m330 0 c0 -8 9 -15 19
-15 10 0 22 -7 25 -16 9 -25 7 -64 -4 -64 -5 0 -10 16 -10 36 0 45 -24 42 -28
-4 -5 -53 -22 -36 -22 23 0 30 5 55 10 55 6 0 10 -7 10 -15z m2705 -20 c0 -25
-4 -30 -27 -33 -20 -2 -28 -9 -28 -23 0 -10 -4 -19 -10 -19 -5 0 -10 25 -10
56 l0 55 38 -3 c34 -3 37 -6 37 -33z m135 -20 c0 -42 -3 -55 -15 -55 -12 0
-15 13 -15 55 0 42 3 55 15 55 12 0 15 -13 15 -55z m40 0 c0 -42 -3 -55 -15
-55 -12 0 -15 13 -15 55 0 42 3 55 15 55 12 0 15 -13 15 -55z m290 0 c0 -30
-4 -55 -10 -55 -5 0 -10 25 -10 55 0 30 5 55 10 55 6 0 10 -25 10 -55z m655
15 l12 -35 12 38 c19 58 41 48 41 -18 0 -58 -19 -78 -21 -22 l-1 32 -10 -32
c-12 -37 -22 -41 -37 -15 -10 16 -10 16 -11 0 0 -10 -7 -18 -15 -18 -12 0 -15
13 -15 56 0 46 3 55 17 52 9 -2 22 -19 28 -38z m255 13 c0 -21 3 -24 12 -15 7
7 18 12 25 12 11 0 11 -4 1 -20 -10 -15 -10 -22 0 -32 6 -6 12 -16 12 -20 0
-14 -22 -8 -36 10 -13 16 -13 16 -14 0 0 -10 -7 -18 -15 -18 -12 0 -15 13 -15
55 0 42 3 55 15 55 10 0 15 -10 15 -27z m300 -28 c0 -30 -4 -55 -10 -55 -5 0
-10 25 -10 55 0 30 5 55 10 55 6 0 10 -25 10 -55z m520 45 c0 -5 -11 -10 -25
-10 -16 0 -25 -6 -25 -15 0 -8 9 -15 20 -15 11 0 20 -4 20 -10 0 -5 -9 -10
-20 -10 -31 0 -24 -17 10 -22 33 -5 46 13 30 43 -8 15 -7 19 5 19 8 0 15 -5
15 -12 0 -9 3 -9 12 0 7 7 18 12 26 12 12 0 12 -3 2 -15 -10 -12 -10 -21 -2
-40 9 -20 9 -25 -1 -25 -7 0 -18 5 -25 12 -9 9 -12 9 -12 0 0 -8 -19 -12 -55
-12 l-55 0 0 55 0 55 40 0 c22 0 40 -4 40 -10z m200 -45 c0 -42 -3 -55 -15
-55 -12 0 -15 13 -15 55 0 42 3 55 15 55 12 0 15 -13 15 -55z m3360 30 c0 -20
5 -25 25 -25 14 0 25 -4 25 -10 0 -5 -11 -10 -25 -10 -20 0 -25 -5 -25 -24 0
-14 -4 -28 -10 -31 -6 -4 -10 7 -10 24 0 28 -3 31 -31 31 -17 0 -28 4 -24 10
3 6 17 10 31 10 19 0 24 5 24 25 0 14 5 25 10 25 6 0 10 -11 10 -25z m-7757
-39 c1 -25 -1 -46 -5 -46 -5 0 -8 16 -8 35 0 19 -5 35 -10 35 -6 0 -5 6 2 14
17 19 20 15 21 -38z m3547 45 c0 -6 19 -11 43 -13 40 -3 42 -5 45 -36 3 -27
-1 -35 -17 -39 -12 -3 -21 -12 -21 -19 0 -8 -7 -14 -15 -14 -8 0 -15 6 -15 14
0 7 -8 16 -19 19 -28 7 -37 97 -10 97 5 0 9 -4 9 -9z m4810 -49 c0 -65 -46
-112 -111 -112 -66 0 -126 85 -103 144 8 20 24 21 24 1 0 -8 9 -15 20 -15 13
0 20 -7 20 -20 0 -13 -7 -20 -20 -20 -11 0 -20 -7 -20 -15 0 -8 9 -15 20 -15
13 0 20 -7 20 -20 0 -11 5 -20 10 -20 6 0 10 25 10 55 0 52 1 55 25 55 24 0
25 -3 25 -55 0 -30 5 -55 10 -55 6 0 10 9 10 20 0 13 7 20 20 20 11 0 20 7 20
15 0 8 -9 15 -20 15 -13 0 -20 7 -20 20 0 13 7 20 20 20 14 0 20 7 20 23 0 18
2 19 10 7 5 -8 10 -30 10 -48z m-9232 -3 c3 -34 1 -36 -25 -35 -37 1 -40 37
-3 46 15 4 20 9 13 13 -6 4 -19 4 -29 0 -12 -4 -15 -3 -10 6 4 7 18 11 29 9
17 -2 23 -11 25 -39z m55 34 c-7 -2 -13 -20 -13 -39 0 -19 -4 -34 -10 -34 -5
0 -10 18 -10 40 0 35 3 40 23 39 12 0 16 -3 10 -6z m75 -13 c4 -12 3 -13 -10
-3 -17 15 -28 8 -28 -18 0 -24 20 -35 31 -18 7 11 9 11 9 1 0 -19 -28 -26 -45
-12 -8 7 -15 20 -15 29 0 37 47 54 58 21z m216 -2 c15 -25 -4 -53 -35 -53 -25
0 -37 30 -25 61 8 20 46 14 60 -8z m54 11 c-11 -6 -18 -22 -18 -39 0 -17 -4
-30 -10 -30 -5 0 -10 18 -10 40 0 37 2 40 28 40 23 -1 24 -2 10 -11z m70 -41
c-2 -28 -7 -53 -13 -55 -6 -2 -9 18 -7 52 2 30 8 55 13 55 6 0 9 -23 7 -52z
m42 16 c0 -45 24 -42 28 4 5 46 22 39 22 -9 0 -39 -1 -40 -32 -37 -30 3 -33 6
-36 41 -2 21 1 37 7 37 6 0 11 -16 11 -36z m177 -9 l1 -40 -6 35 c-4 22 -13
35 -22 35 -10 0 -17 -12 -19 -35 l-4 -35 -6 35 c-4 22 -12 35 -21 35 -9 0 -17
-13 -21 -35 l-6 -35 -2 41 -1 41 53 -1 52 -1 2 -40z m93 25 c14 -26 -3 -60
-30 -60 -11 0 -20 -7 -20 -15 0 -8 -4 -15 -10 -15 -5 0 -10 25 -10 55 0 54 0
55 30 55 19 0 33 -7 40 -20z m174 -2 c15 -25 -4 -53 -35 -53 -25 0 -37 30 -25
61 8 20 46 14 60 -8z m1966 -9 c0 -38 24 -35 28 4 5 42 22 32 22 -14 0 -39 -1
-40 -32 -37 -30 3 -33 6 -36 41 -2 21 1 37 7 37 6 0 11 -14 11 -31z m214 16
c3 -8 0 -15 -6 -15 -7 0 -6 -5 2 -15 17 -20 4 -35 -30 -35 -32 0 -50 18 -30
30 9 6 9 9 1 15 -9 5 -9 10 0 21 15 19 55 18 63 -1z m294 3 c9 -9 15 -9 24 0
16 16 58 15 59 0 0 -10 2 -10 6 0 10 25 33 12 33 -18 0 -16 5 -30 10 -30 6 0
10 14 10 30 0 20 5 30 15 30 11 0 15 -11 15 -40 0 -39 -1 -40 -35 -40 -19 0
-35 5 -35 11 0 8 -4 8 -12 1 -17 -13 -146 -13 -154 0 -4 6 -1 14 6 18 9 6 9 9
1 15 -9 5 -9 10 0 21 14 17 41 18 57 2z m250 -15 c3 -18 -2 -23 -20 -24 -23
-1 -23 -1 2 -8 33 -9 9 -25 -26 -17 -44 11 -25 80 21 74 12 -2 21 -12 23 -25z
m86 12 c3 -8 0 -15 -6 -15 -7 0 -6 -5 2 -15 17 -20 4 -35 -30 -35 -32 0 -50
18 -30 30 9 6 9 9 1 15 -9 5 -9 10 0 21 15 19 55 18 63 -1z m390 -1 c3 -9 6
-27 6 -40 0 -20 -5 -24 -29 -24 -31 0 -59 24 -41 35 6 3 8 11 5 16 -10 15 5
29 30 29 12 0 26 -7 29 -16z m56 6 c0 -5 -4 -10 -10 -10 -5 0 -10 -13 -10 -30
0 -16 -4 -30 -10 -30 -5 0 -10 18 -10 40 0 33 3 40 20 40 11 0 20 -4 20 -10z
m168 -17 c3 -19 -2 -23 -25 -24 l-28 -2 28 -4 c33 -5 26 -23 -8 -23 -30 0 -46
27 -34 58 12 32 62 28 67 -5z m263 -16 l6 -38 -36 3 c-32 3 -36 6 -37 33 -2
40 3 47 34 43 22 -2 28 -9 33 -41z m76 32 c8 -8 17 -7 32 3 24 15 54 2 59 -26
3 -11 -4 -16 -25 -17 -23 -1 -24 -2 -5 -6 12 -2 22 -9 22 -14 0 -13 -44 -11
-57 2 -8 8 -17 7 -32 -3 -38 -23 -79 23 -51 57 15 18 42 19 57 4z m508 -29 c0
-29 -4 -36 -22 -38 -13 -2 -23 -10 -23 -18 0 -8 -4 -14 -10 -14 -5 0 -10 25
-10 56 l0 55 33 -3 c29 -3 32 -6 32 -38z m134 23 c10 -17 10 -17 11 0 0 11 8
17 25 17 14 0 25 -4 25 -10 0 -5 -4 -10 -10 -10 -5 0 -10 -13 -10 -30 0 -20
-5 -30 -15 -30 -8 0 -15 8 -15 17 0 15 -1 15 -13 -1 -19 -26 -61 -18 -65 12
-2 13 -1 30 2 38 8 20 53 18 65 -3z m139 -10 c3 -18 -2 -23 -20 -24 -23 -1
-23 -1 2 -9 21 -6 22 -8 8 -14 -41 -18 -71 16 -54 60 9 25 60 14 64 -13z
m3317 -13 c-16 -18 -19 -18 -41 -3 -13 8 -24 17 -24 19 0 2 19 4 42 4 40 0 41
0 23 -20z m520 0 c-17 -19 -19 -19 -39 -3 -12 10 -23 19 -25 20 -2 2 15 3 39
3 43 0 43 0 25 -20z m-1045 -70 c0 -5 -9 -10 -19 -10 -11 0 -23 5 -26 10 -4 6
5 10 19 10 14 0 26 -4 26 -10z"/>
<path d="M9417 16514 c-4 -4 -7 -21 -7 -39 0 -17 -5 -36 -12 -43 -9 -9 1 -12
46 -12 42 0 55 3 50 12 -4 7 -10 28 -14 48 -4 28 -10 36 -30 38 -14 2 -29 0
-33 -4z"/>
<path d="M1055 16470 c-3 -5 3 -10 14 -10 12 0 21 5 21 10 0 6 -6 10 -14 10
-8 0 -18 -4 -21 -10z"/>
<path d="M4000 16485 c0 -8 7 -15 15 -15 8 0 15 7 15 15 0 8 -7 15 -15 15 -8
0 -15 -7 -15 -15z"/>
<path d="M5600 16450 c0 -11 5 -20 10 -20 6 0 10 9 10 20 0 11 -4 20 -10 20
-5 0 -10 -9 -10 -20z"/>
<path d="M5650 16450 c0 -11 5 -20 10 -20 6 0 10 9 10 20 0 11 -4 20 -10 20
-5 0 -10 -9 -10 -20z"/>
<path d="M1135 16441 c-3 -5 -1 -12 5 -16 12 -7 30 2 30 16 0 12 -27 12 -35 0z"/>
<path d="M1476 16465 c-7 -20 3 -45 19 -45 18 0 27 30 14 46 -15 18 -25 18
-33 -1z"/>
<path d="M1914 16466 c-8 -22 3 -49 19 -43 6 2 12 14 12 27 0 27 -22 39 -31
16z"/>
<path d="M2084 16466 c-8 -22 3 -49 19 -43 6 2 12 14 12 27 0 27 -22 39 -31
16z"/>
<path d="M4605 16450 c3 -5 13 -10 21 -10 8 0 12 5 9 10 -3 6 -13 10 -21 10
-8 0 -12 -4 -9 -10z"/>
<path d="M4685 16450 c3 -5 8 -10 11 -10 2 0 4 5 4 10 0 6 -5 10 -11 10 -5 0
-7 -4 -4 -10z"/>
<path d="M5290 16440 c0 -5 5 -10 10 -10 6 0 10 5 10 10 0 6 -4 10 -10 10 -5
0 -10 -4 -10 -10z"/>
<path d="M5518 16463 c7 -3 16 -2 19 1 4 3 -2 6 -13 5 -11 0 -14 -3 -6 -6z"/>
<path d="M5780 16440 c-13 -8 -12 -10 3 -10 9 0 17 5 17 10 0 12 -1 12 -20 0z"/>
<path d="M5860 16450 c0 -18 4 -20 23 -14 25 7 32 12 26 18 -2 2 -14 7 -26 10
-19 6 -23 4 -23 -14z"/>
<path d="M6360 16450 c0 -11 7 -20 15 -20 8 0 15 9 15 20 0 11 -7 20 -15 20
-8 0 -15 -9 -15 -20z"/>
<path d="M6495 16460 c-7 -12 2 -30 16 -30 5 0 9 9 9 20 0 21 -15 27 -25 10z"/>
<path d="M2510 15786 l0 -83 37 1 c31 1 40 6 51 29 18 37 -3 83 -36 80 -18 -2
-22 2 -22 27 0 20 -5 30 -15 30 -12 0 -15 -16 -15 -84z m65 -27 c0 -24 -5 -34
-15 -34 -16 0 -25 37 -16 62 10 26 31 8 31 -28z"/>
<path d="M2640 15785 c0 -50 4 -85 10 -85 6 0 10 35 10 85 0 50 -4 85 -10 85
-6 0 -10 -35 -10 -85z"/>
<path d="M3060 15785 c0 -50 4 -85 10 -85 6 0 10 20 10 44 0 31 5 46 16 50 26
10 34 -2 34 -50 0 -24 5 -44 10 -44 15 0 12 96 -3 108 -7 6 -23 9 -35 5 -19
-5 -22 -1 -22 26 0 17 -4 31 -10 31 -6 0 -10 -35 -10 -85z"/>
<path d="M3186 15861 c-4 -5 -2 -12 3 -15 5 -4 12 -2 15 3 4 5 2 12 -3 15 -5
4 -12 2 -15 -3z"/>
<path d="M297 15853 c-11 -10 -8 -133 3 -133 5 0 7 7 4 15 -5 12 4 15 44 15
54 0 73 -12 45 -29 -16 -9 -16 -10 5 -11 21 0 22 4 22 75 l0 75 -58 0 c-32 0
-62 -3 -65 -7z m108 -48 l0 -40 -52 -3 -53 -3 0 46 0 46 53 -3 52 -3 0 -40z"/>
<path d="M620 15836 c0 -21 -5 -24 -27 -23 -20 2 -31 -5 -42 -25 -14 -25 -14
-31 -1 -55 13 -22 23 -28 53 -29 l37 -1 0 78 c0 46 -4 79 -10 79 -5 0 -10 -11
-10 -24z m-16 -32 c22 -9 22 -80 0 -88 -36 -14 -62 52 -32 82 14 14 12 14 32
6z"/>
<path d="M853 15780 c0 -70 1 -76 6 -37 12 84 58 87 64 4 l3 -52 2 56 c2 60
-7 73 -46 62 -16 -4 -21 1 -25 24 -2 15 -4 -10 -4 -57z"/>
<path d="M1053 15780 c0 -47 2 -64 4 -38 7 88 51 88 64 0 l6 -47 2 51 c1 57
-15 80 -48 69 -16 -5 -20 -1 -24 22 -2 15 -4 -10 -4 -57z"/>
<path d="M1413 15780 c0 -47 2 -64 4 -38 3 34 10 51 22 58 26 13 39 -5 44 -60
3 -43 4 -42 5 11 2 60 -7 73 -46 62 -16 -4 -21 1 -25 24 -2 15 -4 -10 -4 -57z"/>
<path d="M1600 15834 c0 -21 -3 -24 -21 -19 -47 15 -80 -63 -41 -98 9 -8 29
-15 44 -14 28 2 28 2 28 80 0 42 -2 77 -5 77 -3 0 -5 -12 -5 -26z m-16 -30
c21 -8 22 -80 1 -88 -27 -10 -45 5 -45 38 0 18 5 37 12 44 14 14 12 14 32 6z"/>
<path d="M1858 15849 c-10 -5 -18 -14 -18 -20 0 -5 11 -2 24 6 22 14 25 14 39
0 21 -20 11 -45 -17 -45 -21 -1 -21 -1 -1 -12 26 -15 34 -28 28 -44 -8 -21
-35 -25 -54 -8 -11 10 -19 12 -19 6 0 -21 40 -35 66 -23 26 11 30 31 14 61 -7
13 -7 21 0 25 17 10 11 44 -9 55 -24 12 -31 12 -53 -1z"/>
<path d="M1990 15853 c63 -7 63 -7 25 -83 -19 -38 -31 -70 -27 -70 10 0 72
129 72 148 0 8 -18 11 -52 10 -39 -1 -44 -2 -18 -5z"/>
<path d="M2100 15840 c-23 -23 -25 -39 -7 -65 10 -12 22 -16 40 -13 36 7 35
-14 0 -41 -16 -11 -23 -21 -17 -21 7 0 22 9 35 19 32 26 34 105 5 127 -26 18
-32 18 -56 -6z m50 -4 c6 -8 10 -25 8 -38 -2 -17 -10 -23 -28 -23 -18 0 -26 6
-28 23 -3 22 13 52 28 52 4 0 13 -7 20 -14z"/>
<path d="M2228 15849 c-10 -5 -18 -14 -18 -20 0 -5 12 -2 26 7 23 16 27 16 41
1 21 -20 10 -47 -19 -47 -22 -1 -22 -1 5 -16 30 -16 35 -35 12 -54 -12 -10
-20 -9 -40 4 -14 9 -25 12 -25 7 0 -6 10 -15 21 -22 45 -24 94 32 58 68 -8 8
-8 13 0 17 18 11 13 44 -8 56 -24 12 -31 12 -53 -1z"/>
<path d="M2402 15778 c-17 -45 -30 -84 -28 -86 2 -2 18 33 36 78 17 45 29 84
27 86 -2 2 -18 -33 -35 -78z"/>
<path d="M980 15836 c0 -8 -6 -17 -12 -19 -10 -4 -10 -6 0 -6 7 -1 12 -17 12
-44 0 -41 13 -67 34 -67 6 0 5 5 -2 12 -16 16 -16 95 1 101 10 4 10 6 0 6 -7
1 -13 8 -13 16 0 8 -4 15 -10 15 -5 0 -10 -6 -10 -14z"/>
<path d="M1780 15836 c0 -8 -6 -17 -12 -19 -10 -4 -10 -6 0 -6 7 -1 12 -17 12
-44 0 -41 13 -67 34 -67 6 0 5 5 -2 12 -16 16 -16 95 1 101 10 4 10 6 0 6 -7
1 -13 8 -13 16 0 8 -4 15 -10 15 -5 0 -10 -6 -10 -14z"/>
<path d="M8405 15820 c-3 -5 1 -10 10 -10 9 0 13 5 10 10 -3 6 -8 10 -10 10
-2 0 -7 -4 -10 -10z"/>
<path d="M683 15760 c0 -36 2 -50 4 -32 2 17 2 47 0 65 -2 17 -4 3 -4 -33z"/>
<path d="M731 15755 l2 -60 6 48 c12 84 58 87 64 4 l3 -52 2 58 c1 32 -2 58
-8 58 -5 1 -23 2 -40 3 l-30 1 1 -60z"/>
<path d="M1173 15813 c-7 -2 -13 -9 -13 -14 0 -6 9 -5 21 2 17 9 25 8 37 -5
17 -16 12 -21 -33 -28 -21 -3 -36 -57 -16 -59 68 -8 71 -7 71 43 0 37 -4 50
-19 58 -21 11 -29 11 -48 3z m57 -68 c0 -19 -32 -36 -49 -25 -8 4 -11 15 -8
24 8 20 57 22 57 1z"/>
<path d="M1293 15760 c0 -52 1 -56 4 -18 7 88 51 88 64 0 l6 -47 2 51 c1 60
-18 86 -49 66 -14 -9 -20 -8 -23 1 -3 7 -5 -17 -4 -53z"/>
<path d="M1663 15813 c-7 -2 -13 -9 -13 -14 0 -6 7 -6 18 -1 21 12 42 5 42
-14 0 -8 -10 -14 -24 -14 -29 0 -49 -22 -40 -44 7 -17 8 -18 54 -20 29 -1 30
0 30 46 0 37 -4 50 -19 58 -21 11 -29 11 -48 3z m47 -72 c0 -22 -29 -36 -43
-22 -15 15 0 41 23 41 13 0 20 -7 20 -19z"/>
<path d="M2710 15800 c-11 -11 -20 -29 -20 -40 0 -23 33 -60 55 -60 22 0 55
37 55 60 0 23 -33 60 -55 60 -8 0 -24 -9 -35 -20z m60 -40 c0 -32 -11 -43 -34
-34 -19 7 -22 60 -3 67 23 8 37 -5 37 -33z"/>
<path d="M2835 15803 c-36 -36 -5 -110 41 -99 13 4 24 2 24 -3 0 -17 -29 -33
-50 -26 -11 4 -20 2 -20 -4 0 -16 46 -24 69 -11 18 9 21 20 21 83 l0 73 -35 1
c-20 1 -42 -6 -50 -14z m53 -12 c19 -12 11 -65 -10 -69 -24 -5 -42 32 -28 58
12 22 18 24 38 11z"/>
<path d="M2965 15806 c-37 -27 -15 -106 31 -106 19 0 49 33 35 38 -6 2 -18 -1
-26 -8 -20 -17 -35 -4 -35 30 0 34 15 47 35 30 23 -19 41 -7 21 13 -21 21 -36
21 -61 3z"/>
<path d="M3180 15760 c0 -47 3 -60 15 -60 12 0 15 13 15 60 0 47 -3 60 -15 60
-12 0 -15 -13 -15 -60z"/>
<path d="M3254 15803 c-20 -20 -2 -32 21 -13 15 12 35 6 35 -11 0 -5 -8 -9
-18 -9 -10 0 -27 -6 -38 -14 -30 -23 -7 -51 44 -53 l41 -1 -6 51 c-3 29 -11
55 -17 59 -18 13 -44 9 -62 -9z m54 -65 c-3 -7 -11 -13 -18 -13 -7 0 -15 6
-17 13 -3 7 4 12 17 12 13 0 20 -5 18 -12z"/>
<path d="M3378 15809 c-29 -16 -21 -39 18 -55 28 -12 34 -18 25 -27 -9 -9 -16
-9 -31 1 -11 7 -21 8 -25 2 -10 -17 35 -33 61 -21 35 15 29 40 -12 57 -28 12
-34 18 -25 27 9 9 17 8 32 -1 27 -17 40 -5 15 14 -23 16 -35 17 -58 3z"/>
<path d="M3492 15804 c-48 -33 -8 -117 48 -99 29 9 25 24 -6 22 -15 -1 -29 4
-31 11 -3 8 7 12 31 12 40 0 45 12 20 48 -18 26 -32 28 -62 6z m46 -22 c2 -7
-6 -12 -17 -12 -21 0 -27 11 -14 24 9 9 26 2 31 -12z"/>
<path d="M3666 15794 c16 -23 16 -28 1 -60 -14 -28 -14 -34 -3 -34 8 0 18 10
22 22 l7 22 17 -22 c28 -34 44 -27 23 8 -17 29 -17 33 -1 60 14 24 14 30 3 30
-8 0 -19 -8 -24 -17 -10 -17 -12 -17 -25 0 -22 28 -39 21 -20 -9z"/>
<path d="M3760 15810 c0 -5 9 -33 20 -61 20 -49 20 -53 4 -70 -19 -21 -15 -33
8 -24 8 3 20 23 27 43 40 121 41 122 26 122 -7 0 -16 -13 -20 -30 -10 -43 -23
-46 -31 -5 -3 20 -12 35 -20 35 -8 0 -14 -4 -14 -10z"/>
<path d="M3880 15811 c0 -5 11 -11 25 -13 l25 -3 -25 -37 c-34 -50 -32 -58 15
-58 44 0 55 17 15 22 l-25 3 25 37 c34 50 32 58 -15 58 -22 0 -40 -4 -40 -9z"/>
<path d="M7352 15770 c0 -51 0 -53 9 -22 12 39 31 37 41 -4 6 -27 6 -27 5 6
-2 28 -7 36 -24 38 -12 2 -24 11 -26 20 -3 9 -5 -8 -5 -38z"/>
<path d="M6722 15790 c-32 -30 -27 -38 6 -9 15 13 29 25 31 27 2 1 0 2 -5 2
-6 0 -20 -9 -32 -20z"/>
<path d="M6911 15773 c-1 -34 3 -43 19 -48 30 -9 50 12 50 51 0 46 -18 43 -22
-3 -4 -53 -31 -51 -39 2 l-6 40 -2 -42z"/>
<path d="M7885 15804 c-13 -5 -7 -84 6 -84 5 0 9 20 9 45 0 25 -1 45 -2 44 -2
0 -8 -3 -13 -5z"/>
<path d="M8607 15803 c-14 -13 -6 -30 19 -41 29 -14 22 -36 -9 -28 -14 3 -17
2 -10 -5 15 -15 47 -7 51 12 1 9 -8 21 -23 27 -27 12 -25 38 2 28 8 -3 11 -1
8 4 -7 11 -28 13 -38 3z"/>
<path d="M9122 15798 c-30 -30 1 -94 33 -68 25 20 13 80 -15 80 -3 0 -11 -5
-18 -12z m28 -33 c0 -14 -4 -25 -10 -25 -5 0 -10 11 -10 25 0 14 5 25 10 25 6
0 10 -11 10 -25z"/>
<path d="M10342 15798 c-30 -30 1 -94 33 -68 25 20 13 80 -15 80 -3 0 -11 -5
-18 -12z m38 -38 c0 -10 -7 -20 -15 -24 -12 -4 -15 3 -15 31 0 30 2 34 15 23
8 -7 15 -20 15 -30z"/>
<path d="M7249 15794 c-3 -20 3 -59 9 -66 4 -4 7 9 6 28 -1 31 -12 60 -15 38z"/>
<path d="M8380 15790 c-9 -6 -10 -10 -3 -10 6 0 15 5 18 10 8 12 4 12 -15 0z"/>
<path d="M8687 15793 c-6 -11 4 -73 12 -73 7 0 6 68 -2 76 -3 3 -7 2 -10 -3z"/>
<path d="M7003 15755 c0 -22 2 -30 4 -17 2 12 2 30 0 40 -3 9 -5 -1 -4 -23z"/>
<path d="M7027 15779 c6 -8 13 -25 16 -39 4 -17 5 -15 4 9 -1 21 -8 36 -17 39
-12 4 -13 2 -3 -9z"/>
<path d="M7095 15769 c-8 -23 -8 -23 -16 -4 l-8 20 0 -20 c0 -11 3 -26 8 -34
7 -11 10 -8 16 9 l7 23 13 -22 12 -23 13 31 c7 18 10 35 6 38 -4 4 -10 -3 -13
-16 l-6 -23 -12 22 -13 23 -7 -24z"/>
<path d="M7174 15779 c-5 -9 -2 -10 9 -6 9 3 19 2 22 -2 2 -5 -5 -11 -16 -14
-27 -7 -19 -32 10 -33 19 -1 22 3 19 30 -3 32 -30 48 -44 25z m31 -39 c-3 -5
-10 -10 -16 -10 -5 0 -9 5 -9 10 0 6 7 10 16 10 8 0 12 -4 9 -10z"/>
<path d="M7290 15775 c-24 -28 17 -72 43 -46 9 9 8 11 -7 5 -20 -8 -37 11 -29
33 3 8 13 11 25 7 14 -4 18 -2 14 5 -10 15 -31 14 -46 -4z"/>
<path d="M8725 15781 c-3 -7 0 -8 9 -5 9 3 16 2 16 -4 0 -5 -7 -12 -15 -16
-25 -9 -18 -36 11 -36 23 0 25 3 22 32 -3 33 -29 50 -43 29z m25 -41 c0 -5 -4
-10 -10 -10 -5 0 -10 5 -10 10 0 6 5 10 10 10 6 0 10 -4 10 -10z"/>
<path d="M8791 15753 c1 -28 3 -31 6 -13 3 14 10 31 15 38 8 9 6 12 -6 12 -12
0 -16 -9 -15 -37z"/>
<path d="M7515 15760 c17 -19 19 -19 37 -4 24 23 24 24 -19 24 -36 0 -36 0
-18 -20z"/>
<path d="M8355 15760 c10 -11 20 -20 22 -20 2 0 -2 9 -9 20 -7 11 -17 20 -22
20 -5 0 -1 -9 9 -20z"/>
<path d="M8461 15758 c-14 -23 -14 -23 8 -4 22 20 25 26 13 26 -4 0 -13 -10
-21 -22z"/>
<path d="M6767 15763 c-12 -11 -8 -23 8 -23 8 0 15 7 15 15 0 16 -12 20 -23 8z"/>
<path d="M6824 15718 l-19 -23 23 19 c21 18 27 26 19 26 -2 0 -12 -10 -23 -22z"/>
<path d="M320 15715 c0 -8 9 -15 20 -15 11 0 20 7 20 15 0 8 -9 15 -20 15 -11
0 -20 -7 -20 -15z"/>
<path d="M3596 15721 c-4 -5 -2 -12 3 -15 5 -4 12 -2 15 3 4 5 2 12 -3 15 -5
4 -12 2 -15 -3z"/>
<path d="M8380 15700 c-9 -6 -10 -10 -3 -10 6 0 15 5 18 10 8 12 4 12 -15 0z"/>
<path d="M6768 15693 c6 -2 18 -2 25 0 6 3 1 5 -13 5 -14 0 -19 -2 -12 -5z"/>
<path d="M703 15194 c-15 -24 -15 -29 -2 -53 17 -30 50 -39 68 -17 10 12 7 14
-21 13 -30 -2 -33 0 -33 28 0 32 31 48 46 24 4 -7 11 -10 15 -6 10 10 -16 37
-37 37 -10 0 -26 -12 -36 -26z"/>
<path d="M930 15205 c0 -8 -7 -15 -15 -15 -8 0 -19 -9 -25 -20 -15 -28 4 -60
35 -60 24 0 25 3 25 55 0 30 -4 55 -10 55 -5 0 -10 -7 -10 -15z m0 -55 c0 -11
-4 -20 -9 -20 -14 0 -23 18 -16 30 10 17 25 11 25 -10z"/>
<path d="M1663 15165 c0 -33 2 -45 4 -27 2 18 2 45 0 60 -2 15 -4 0 -4 -33z"/>
<path d="M2711 15163 c0 -38 3 -51 8 -38 4 11 19 22 32 25 19 5 24 12 24 35 0
26 -4 30 -32 33 l-33 3 1 -58z m59 22 c0 -20 -5 -25 -25 -25 -18 0 -25 5 -25
18 0 24 8 32 32 32 13 0 18 -7 18 -25z"/>
<path d="M2893 15165 c0 -33 2 -45 4 -27 2 18 2 45 0 60 -2 15 -4 0 -4 -33z"/>
<path d="M2923 15165 c0 -33 2 -45 4 -27 2 18 2 45 0 60 -2 15 -4 0 -4 -33z"/>
<path d="M4223 15165 c-12 -30 -17 -55 -12 -55 5 0 9 7 9 15 0 21 46 19 60 -2
10 -15 11 -15 6 -2 -2 10 -10 35 -17 58 -7 23 -15 41 -19 41 -4 0 -16 -25 -27
-55z m40 5 c4 -15 0 -20 -15 -20 -14 0 -18 5 -14 16 3 9 6 20 6 25 0 17 17 1
23 -21z"/>
<path d="M5341 15163 c1 -32 4 -48 6 -36 3 15 13 23 31 25 20 2 28 9 30 27 4
26 -12 41 -45 41 -21 0 -23 -4 -22 -57z m54 22 c0 -13 -8 -21 -22 -23 -19 -3
-23 1 -23 23 0 22 4 26 23 23 14 -2 22 -10 22 -23z"/>
<path d="M6514 15170 c14 -63 23 -70 34 -29 5 19 14 33 21 32 6 -2 11 5 11 15
0 37 -14 32 -31 -10 l-17 -43 -7 38 c-4 20 -11 39 -15 42 -4 2 -2 -18 4 -45z"/>
<path d="M6617 15213 c-3 -5 -8 -23 -12 -42 -5 -26 -10 -30 -17 -20 -8 11 -8
10 -4 -4 3 -10 6 -24 6 -29 0 -23 12 2 25 51 12 47 13 62 2 44z"/>
<path d="M6683 15165 c0 -33 1 -52 4 -42 2 9 7 17 10 17 4 0 16 -8 27 -17 21
-18 21 -18 4 3 -20 23 -23 44 -8 44 6 0 10 5 10 12 0 6 -8 4 -19 -6 -19 -17
-20 -17 -24 16 -2 18 -4 6 -4 -27z"/>
<path d="M7423 15213 c-24 -9 -14 -41 17 -52 17 -5 30 -17 30 -25 0 -19 -31
-21 -48 -4 -9 9 -12 9 -12 0 0 -17 48 -26 65 -12 23 19 18 30 -20 46 -19 8
-35 19 -35 24 0 16 30 24 43 11 6 -6 16 -11 22 -11 5 0 1 7 -9 15 -20 15 -32
17 -53 8z"/>
<path d="M8583 15165 c0 -33 2 -45 4 -27 2 18 2 45 0 60 -2 15 -4 0 -4 -33z"/>
<path d="M8902 15165 c1 -47 2 -52 7 -25 4 22 12 35 21 35 9 0 18 -13 22 -35
l6 -35 -1 40 c-2 33 -6 40 -22 40 -11 0 -23 9 -27 20 -3 11 -6 -7 -6 -40z"/>
<path d="M472 15187 c-28 -30 -28 -38 3 -67 21 -19 25 -21 25 -7 0 9 -4 17 -9
17 -21 0 -21 34 0 57 13 12 18 23 12 23 -5 0 -19 -10 -31 -23z"/>
<path d="M570 15185 l23 -25 -23 -25 c-13 -14 -19 -25 -13 -25 5 0 20 11 33
25 l23 25 -23 25 c-13 14 -28 25 -33 25 -6 0 0 -11 13 -25z"/>
<path d="M3482 15194 c-7 -8 -8 -14 -2 -14 5 0 10 -16 10 -35 0 -19 3 -35 8
-35 7 0 8 88 0 95 -1 1 -9 -3 -16 -11z"/>
<path d="M4402 15194 c-7 -8 -8 -14 -2 -14 5 0 10 -16 10 -35 0 -19 3 -35 8
-35 7 0 8 88 0 95 -1 1 -9 -3 -16 -11z"/>
<path d="M5782 15194 c-7 -8 -8 -14 -2 -14 5 0 10 -13 10 -29 0 -17 3 -32 8
-34 7 -5 8 81 0 88 -1 1 -9 -3 -16 -11z"/>
<path d="M7849 15199 c-2 -29 3 -74 9 -81 4 -4 6 13 5 38 -1 43 -12 74 -14 43z"/>
<path d="M8999 15198 c-3 -31 3 -74 12 -82 5 -6 9 10 9 42 0 29 -4 52 -10 52
-5 0 -10 -6 -11 -12z"/>
<path d="M813 15183 c-21 -8 -16 -61 6 -68 30 -9 51 5 51 35 0 33 -24 47 -57
33z m37 -33 c0 -11 -7 -20 -15 -20 -8 0 -15 9 -15 20 0 11 7 20 15 20 8 0 15
-9 15 -20z"/>
<path d="M982 15178 c-28 -28 0 -78 35 -63 16 7 15 9 -7 15 -23 7 -23 8 -3 9
28 1 38 18 23 36 -15 18 -32 19 -48 3z m35 -14 c-3 -3 -12 -4 -19 -1 -8 3 -5
6 6 6 11 1 17 -2 13 -5z"/>
<path d="M1701 15181 c-15 -10 -7 -31 12 -31 7 0 6 4 -3 10 -12 8 -12 10 2 15
10 4 22 3 29 -1 8 -4 9 -3 5 4 -8 14 -26 15 -45 3z"/>
<path d="M1781 15181 c-15 -10 -7 -31 12 -31 7 0 6 4 -3 10 -12 8 -12 10 2 15
10 4 22 3 29 -1 8 -4 9 -3 5 4 -8 14 -26 15 -45 3z"/>
<path d="M1854 15150 c1 -31 4 -35 29 -36 25 -1 27 1 26 40 l-2 41 -6 -35 c-8
-48 -38 -54 -44 -8 l-4 33 1 -35z"/>
<path d="M1973 15184 c9 -3 17 -10 17 -15 0 -14 -40 -11 -41 4 0 6 -4 3 -8 -8
-5 -11 -4 -28 1 -37 9 -18 43 -24 52 -10 3 5 -4 8 -16 8 -12 -1 -23 5 -25 12
-3 7 5 12 22 12 20 0 26 4 23 17 -2 10 -12 19 -23 20 -16 1 -16 1 -2 -3z"/>
<path d="M2027 15183 c-10 -10 -8 -33 3 -33 5 0 7 7 3 17 -5 13 -2 15 15 11
12 -4 20 -2 16 3 -6 11 -28 12 -37 2z"/>
<path d="M2804 15155 c1 -31 5 -41 21 -43 18 -4 19 -3 3 10 -9 7 -19 27 -21
43 -3 21 -4 18 -3 -10z"/>
<path d="M2853 15150 c0 -25 2 -35 4 -22 2 12 2 32 0 45 -2 12 -4 2 -4 -23z"/>
<path d="M3001 15145 c2 -33 3 -35 6 -10 2 17 11 35 20 42 13 10 13 12 -6 10
-18 -1 -21 -7 -20 -42z"/>
<path d="M3062 15178 c-15 -15 -15 -41 0 -56 14 -14 44 -16 52 -3 3 4 -5 6
-18 4 -15 -3 -25 1 -29 11 -5 12 0 16 24 16 24 0 30 4 27 18 -4 21 -39 27 -56
10z m48 -8 c0 -5 -12 -10 -26 -10 -14 0 -23 4 -19 10 3 6 15 10 26 10 10 0 19
-4 19 -10z"/>
<path d="M3142 15178 c-22 -22 -7 -69 23 -68 5 0 2 5 -7 11 -10 5 -18 19 -18
29 0 10 8 24 18 29 9 6 12 11 7 11 -6 0 -16 -5 -23 -12z"/>
<path d="M3183 15135 c0 -33 2 -45 4 -27 2 18 2 45 0 60 -2 15 -4 0 -4 -33z"/>
<path d="M3223 15155 c2 -36 5 -40 30 -41 25 -1 27 1 26 40 l-2 41 -6 -35 c-4
-22 -12 -35 -21 -35 -9 0 -18 13 -22 35 l-6 35 1 -40z"/>
<path d="M3316 15175 c-20 -20 -20 -29 0 -49 17 -17 40 -21 48 -8 3 5 -4 8
-16 8 -12 -1 -23 5 -25 12 -3 7 5 12 22 12 20 0 26 4 23 17 -4 24 -32 28 -52
8z m44 -5 c0 -5 -9 -10 -21 -10 -11 0 -17 5 -14 10 3 6 13 10 21 10 8 0 14 -4
14 -10z"/>
<path d="M3397 15183 c-10 -10 -8 -33 3 -33 5 0 7 7 3 17 -5 13 -2 15 15 11
12 -4 20 -2 16 3 -6 11 -28 12 -37 2z"/>
<path d="M3527 15183 c-10 -10 -8 -33 3 -33 5 0 7 7 3 17 -5 13 -2 15 15 11
12 -4 20 -2 16 3 -6 11 -28 12 -37 2z"/>
<path d="M4317 15183 c-4 -3 -7 -19 -7 -35 0 -31 24 -48 42 -30 7 7 4 10 -8 9
-14 -2 -19 5 -19 23 0 18 5 25 17 24 10 -1 15 2 12 7 -6 11 -28 12 -37 2z"/>
<path d="M4443 15150 c0 -25 2 -35 4 -22 2 12 2 32 0 45 -2 12 -4 2 -4 -23z"/>
<path d="M4492 15178 c-17 -17 -15 -55 4 -62 25 -10 33 -7 44 14 20 38 -19 77
-48 48z m42 -13 c8 -21 -3 -45 -20 -45 -8 0 -17 7 -20 15 -8 21 2 45 20 45 7
0 16 -7 20 -15z"/>
<path d="M4561 15150 l1 -45 8 35 c5 20 5 39 -1 45 -5 5 -9 -8 -8 -35z"/>
<path d="M4597 15183 c6 -4 13 -24 16 -43 4 -34 4 -33 3 4 -1 26 -6 41 -16 43
-10 3 -11 2 -3 -4z"/>
<path d="M4654 15179 c-3 -6 -1 -16 5 -22 9 -9 10 -7 5 7 -6 17 -4 18 20 12
18 -4 25 -3 21 4 -8 13 -42 13 -51 -1z"/>
<path d="M5431 15148 c2 -34 3 -37 6 -13 2 17 12 36 21 43 14 11 13 12 -6 12
-19 0 -22 -5 -21 -42z"/>
<path d="M5490 15171 c-15 -29 4 -63 33 -59 18 2 22 10 22 38 0 28 -4 36 -22
38 -14 2 -26 -4 -33 -17z m48 -24 c3 -21 -1 -27 -16 -27 -22 0 -34 22 -25 45
9 25 38 13 41 -18z"/>
<path d="M5570 15138 c-3 -31 -1 -53 3 -49 5 5 7 30 5 57 l-3 49 -5 -57z"/>
<path d="M5620 15175 c-15 -18 -10 -45 12 -59 12 -7 21 -7 28 0 8 8 4 10 -11
10 -12 -1 -24 5 -26 12 -3 8 6 12 26 12 33 0 39 8 19 28 -16 16 -33 15 -48 -3z
m45 -5 c4 -6 -5 -10 -20 -10 -15 0 -24 4 -20 10 3 6 12 10 20 10 8 0 17 -4 20
-10z"/>
<path d="M5703 15183 c-19 -7 -16 -60 4 -67 9 -4 21 -2 26 3 6 6 2 9 -9 8 -14
-2 -19 5 -19 23 0 18 5 25 17 24 10 -1 15 2 12 7 -6 10 -12 10 -31 2z"/>
<path d="M5825 15180 c-8 -13 3 -30 18 -29 9 0 9 2 0 6 -25 10 -13 25 15 19
20 -5 23 -4 12 4 -19 13 -37 13 -45 0z"/>
<path d="M6643 15150 c0 -25 2 -35 4 -22 2 12 2 32 0 45 -2 12 -4 2 -4 -23z"/>
<path d="M6763 15150 c0 -25 2 -35 4 -22 2 12 2 32 0 45 -2 12 -4 2 -4 -23z"/>
<path d="M7512 15178 c-20 -20 -15 -56 9 -63 12 -4 25 -3 30 2 6 6 1 9 -12 9
-12 -1 -24 5 -26 12 -3 7 5 12 22 12 20 0 26 4 23 17 -4 22 -29 28 -46 11z
m38 -8 c0 -5 -9 -10 -21 -10 -11 0 -17 5 -14 10 3 6 13 10 21 10 8 0 14 -4 14
-10z"/>
<path d="M7592 15178 c-17 -17 -15 -43 3 -58 11 -9 19 -10 26 -3 8 8 6 11 -7
10 -14 -2 -19 5 -19 23 0 18 5 25 17 24 10 -1 15 2 12 7 -7 12 -18 11 -32 -3z"/>
<path d="M7664 15150 c1 -30 5 -35 29 -38 26 -3 27 -2 26 40 -2 43 -2 43 -8 8
-8 -48 -38 -54 -44 -8 l-4 33 1 -35z"/>
<path d="M7750 15173 c0 -10 4 -14 8 -8 4 6 11 13 16 18 5 4 2 7 -7 7 -10 0
-17 -8 -17 -17z"/>
<path d="M7793 15150 c0 -25 2 -35 4 -22 2 12 2 32 0 45 -2 12 -4 2 -4 -23z"/>
<path d="M7893 15155 c14 -39 30 -49 35 -21 3 11 0 16 -7 12 -6 -4 -15 4 -21
18 -14 39 -21 31 -7 -9z"/>
<path d="M8611 15146 l2 -41 6 35 c4 22 12 35 21 35 9 0 18 -13 22 -35 l6 -35
-1 40 c-2 36 -5 40 -29 41 -26 1 -28 -1 -27 -40z"/>
<path d="M8707 15183 c-10 -10 -8 -33 3 -33 5 0 7 7 3 17 -5 13 -2 15 15 11
12 -4 20 -2 16 3 -6 11 -28 12 -37 2z"/>
<path d="M8783 15150 c0 -25 2 -35 4 -22 2 12 2 32 0 45 -2 12 -4 2 -4 -23z"/>
<path d="M8822 15178 c-22 -22 -7 -69 23 -68 5 0 2 5 -7 11 -10 5 -18 19 -18
29 0 10 8 24 18 29 9 6 12 11 7 11 -6 0 -16 -5 -23 -12z"/>
<path d="M8862 15143 c-2 -40 -6 -53 -19 -56 -17 -4 -17 -5 0 -6 23 -1 29 17
24 70 l-4 44 -1 -52z"/>
<path d="M9047 15183 c-3 -5 5 -8 18 -8 13 0 21 3 18 8 -2 4 -10 7 -18 7 -8 0
-16 -3 -18 -7z"/>
<path d="M10185 15160 c-3 -6 1 -13 10 -16 19 -8 30 0 20 15 -8 14 -22 14 -30
1z"/>
<path d="M10260 15156 c0 -9 7 -16 16 -16 9 0 14 5 12 12 -6 18 -28 21 -28 4z"/>
<path d="M10336 15163 c-11 -11 -6 -23 9 -23 8 0 15 4 15 9 0 13 -16 22 -24
14z"/>
<path d="M1737 15134 c5 -14 2 -16 -23 -10 -24 5 -26 4 -11 -5 10 -6 25 -8 33
-5 16 6 20 36 4 36 -5 0 -7 -7 -3 -16z"/>
<path d="M1817 15133 c5 -13 2 -15 -17 -10 -16 4 -20 3 -12 -5 14 -14 42 -3
42 17 0 8 -4 15 -10 15 -5 0 -7 -7 -3 -17z"/>
<path d="M2060 15141 c12 -9 12 -11 -2 -16 -10 -4 -23 -3 -30 1 -11 6 -11 4 0
-7 9 -9 17 -11 28 -4 19 12 20 28 2 33 -9 2 -8 0 2 -7z"/>
<path d="M3430 15141 c12 -9 12 -11 -2 -16 -10 -4 -23 -3 -30 1 -10 5 -10 4
-2 -6 7 -7 21 -9 34 -5 23 7 23 26 -1 33 -12 3 -12 2 1 -7z"/>
<path d="M3557 15134 c5 -14 2 -16 -17 -11 -16 4 -20 3 -12 -5 12 -12 54 0 49
15 -2 6 -9 13 -15 15 -8 2 -10 -3 -5 -14z"/>
<path d="M4696 15136 c6 -16 4 -18 -19 -14 -15 3 -24 1 -21 -3 7 -13 42 -11
50 2 3 6 1 16 -5 22 -9 9 -10 7 -5 -7z"/>
<path d="M5863 15138 c1 -8 -7 -12 -23 -11 -22 2 -23 1 -7 -8 10 -6 25 -8 33
-5 16 6 19 36 4 36 -5 0 -9 -6 -7 -12z"/>
<path d="M8737 15133 c5 -13 2 -15 -17 -10 -16 4 -20 3 -12 -5 14 -14 42 -3
42 17 0 8 -4 15 -10 15 -5 0 -7 -7 -3 -17z"/>
<path d="M9077 15133 c5 -13 2 -15 -17 -10 -16 4 -20 3 -12 -5 14 -14 42 -3
42 17 0 8 -4 15 -10 15 -5 0 -7 -7 -3 -17z"/>
<path d="M280 14412 l0 -69 30 -1 c30 -1 50 20 50 52 0 21 -30 48 -46 42 -10
-4 -14 3 -14 19 0 14 -4 25 -10 25 -6 0 -10 -29 -10 -68z m55 -22 c0 -16 -6
-26 -17 -28 -14 -3 -18 3 -18 28 0 25 4 31 18 28 11 -2 17 -12 17 -28z"/>
<path d="M380 14410 c0 -40 4 -70 10 -70 6 0 10 30 10 70 0 40 -4 70 -10 70
-6 0 -10 -30 -10 -70z"/>
<path d="M723 14410 c0 -55 1 -64 6 -35 4 27 12 41 24 43 14 3 17 -4 17 -37 0
-23 5 -41 10 -41 15 0 12 76 -4 89 -7 6 -20 9 -29 5 -11 -4 -17 2 -20 23 -2
15 -4 -6 -4 -47z"/>
<path d="M435 14420 c-33 -37 2 -92 49 -74 25 10 31 51 11 74 -10 11 -23 20
-30 20 -7 0 -20 -9 -30 -20z m50 -30 c0 -29 -32 -41 -41 -16 -9 24 4 48 23 44
12 -2 18 -12 18 -28z"/>
<path d="M542 14431 c-6 -3 -13 -18 -17 -32 -7 -30 18 -64 41 -55 8 3 14 -1
14 -10 0 -12 -7 -15 -25 -12 -30 6 -34 -8 -5 -17 35 -11 50 12 50 74 0 52 -2
56 -24 57 -13 1 -28 -1 -34 -5z m38 -41 c0 -32 -26 -43 -36 -15 -9 21 3 45 21
45 10 0 15 -10 15 -30z"/>
<path d="M636 14424 c-9 -8 -16 -24 -16 -34 0 -10 7 -26 16 -34 18 -18 17 -18
38 -10 23 9 19 21 -6 20 -14 -1 -24 6 -26 18 -5 26 13 42 32 27 9 -8 16 -8 20
-2 4 6 -2 15 -13 20 -25 14 -27 14 -45 -5z"/>
<path d="M823 14390 c0 -30 2 -43 4 -27 2 15 2 39 0 55 -2 15 -4 2 -4 -28z"/>
<path d="M874 14425 c-18 -15 -18 -15 7 -9 15 3 30 1 33 -5 4 -7 -1 -11 -12
-11 -11 0 -25 -7 -32 -15 -17 -21 0 -39 38 -41 26 -1 27 0 23 40 -5 55 -22 68
-57 41z m41 -55 c-3 -5 -13 -10 -21 -10 -8 0 -14 5 -14 10 0 6 9 10 21 10 11
0 17 -4 14 -10z"/>
<path d="M973 14433 c-23 -9 -15 -42 12 -49 14 -3 25 -11 25 -16 0 -6 -11 -8
-25 -6 -29 6 -34 -8 -6 -17 46 -14 71 28 26 45 -34 13 -33 34 2 25 23 -5 25
-4 14 9 -14 16 -26 19 -48 9z"/>
<path d="M1068 14429 c-28 -16 -23 -67 7 -81 19 -9 28 -9 37 0 9 9 6 12 -15
12 -15 0 -27 5 -27 10 0 6 14 10 30 10 34 0 40 19 14 44 -18 19 -23 19 -46 5z
m37 -19 c3 -5 -3 -10 -14 -10 -12 0 -21 5 -21 10 0 6 6 10 14 10 8 0 18 -4 21
-10z"/>
<path d="M1190 14435 c0 -3 6 -14 12 -25 10 -16 10 -24 0 -41 -17 -27 -6 -39
12 -14 13 18 13 18 24 -1 14 -26 27 -11 12 15 -8 15 -8 27 0 42 15 27 4 38
-14 13 -14 -18 -15 -18 -21 -1 -6 15 -25 25 -25 12z"/>
<path d="M1285 14399 c18 -51 19 -76 3 -82 -7 -2 -10 -8 -5 -13 12 -12 33 16
51 70 19 58 19 66 6 66 -5 0 -10 -8 -10 -17 0 -10 -5 -25 -10 -33 -7 -12 -11
-8 -16 18 -4 17 -12 32 -20 32 -11 0 -10 -8 1 -41z"/>
<path d="M1370 14430 c0 -5 9 -10 20 -10 25 0 25 -8 0 -40 -27 -35 -25 -40 15
-40 19 0 35 5 35 10 0 6 -9 10 -21 10 l-21 0 21 36 c12 19 21 37 21 40 0 2
-16 4 -35 4 -19 0 -35 -4 -35 -10z"/>
<path d="M1506 14355 c-9 -26 -7 -32 5 -12 6 10 9 21 6 23 -2 3 -7 -2 -11 -11z"/>
<path d="M1145 14350 c3 -5 8 -10 11 -10 2 0 4 5 4 10 0 6 -5 10 -11 10 -5 0
-7 -4 -4 -10z"/>
<path d="M2740 12515 l0 -95 40 0 c56 0 90 34 90 89 0 22 -3 47 -6 56 -9 22
-57 45 -94 45 l-30 0 0 -95z m90 35 c19 -46 3 -94 -33 -98 -27 -3 -27 -3 -27
62 0 63 1 66 24 66 17 0 27 -9 36 -30z"/>
<path d="M3393 12600 c-13 -5 -23 -16 -23 -25 0 -8 -4 -15 -10 -15 -5 0 -10
-7 -10 -15 0 -8 5 -15 10 -15 6 0 10 -25 10 -55 0 -42 3 -55 15 -55 12 0 15
13 15 55 0 42 3 55 15 55 8 0 15 7 15 15 0 8 -7 15 -16 15 -8 0 -12 5 -9 10 3
6 18 10 31 10 16 0 24 5 22 13 -6 15 -36 19 -65 7z"/>
<path d="M3520 12515 c0 -78 3 -95 15 -95 12 0 15 17 15 95 0 78 -3 95 -15 95
-12 0 -15 -17 -15 -95z"/>
<path d="M3930 12515 c0 -76 3 -95 14 -95 11 0 16 15 18 53 3 44 6 52 23 52
17 0 20 -8 23 -52 2 -38 7 -53 18 -53 11 0 14 14 14 59 0 66 -15 87 -55 77
-23 -6 -25 -3 -25 24 0 20 -5 30 -15 30 -12 0 -15 -17 -15 -95z"/>
<path d="M5050 12580 c0 -27 -3 -30 -24 -24 -34 8 -66 -26 -66 -69 0 -45 24
-65 78 -65 l42 1 0 93 c0 77 -3 94 -15 94 -10 0 -15 -10 -15 -30z m-5 -90 c0
-28 -4 -36 -21 -38 -26 -4 -38 31 -23 60 17 32 44 18 44 -22z"/>
<path d="M5200 12580 c0 -27 -3 -30 -24 -24 -50 12 -86 -64 -52 -111 9 -12 28
-19 60 -21 l46 -3 0 95 c0 77 -3 94 -15 94 -10 0 -15 -10 -15 -30z m-2 -93 c3
-33 1 -37 -21 -37 -28 0 -38 24 -26 59 14 36 43 23 47 -22z"/>
<path d="M5419 12588 c-6 -141 -4 -168 13 -168 13 0 18 11 20 53 3 44 6 52 23
52 17 0 20 -8 23 -52 2 -38 7 -53 18 -53 11 0 14 14 14 59 0 66 -15 87 -55 77
-23 -6 -25 -3 -25 24 0 36 -29 43 -31 8z"/>
<path d="M7570 12600 c-12 -7 -12 -12 -2 -22 9 -9 15 -9 24 0 16 16 -2 34 -22
22z"/>
<path d="M4540 12575 c0 -8 -4 -15 -10 -15 -5 0 -10 -7 -10 -15 0 -8 5 -15 10
-15 6 0 10 -22 10 -49 0 -35 4 -51 16 -55 25 -10 34 -7 34 9 0 8 -4 15 -10 15
-5 0 -10 18 -10 40 0 22 5 40 10 40 6 0 10 7 10 15 0 8 -4 15 -10 15 -5 0 -10
7 -10 15 0 8 -7 15 -15 15 -8 0 -15 -7 -15 -15z"/>
<path d="M5337 12570 c-6 -24 5 -120 17 -138 10 -17 46 -15 46 3 0 8 -4 15
-10 15 -5 0 -10 18 -10 40 0 22 5 40 10 40 6 0 10 7 10 15 0 8 -4 15 -10 15
-5 0 -10 7 -10 15 0 23 -37 18 -43 -5z"/>
<path d="M6020 12575 c0 -8 -4 -15 -10 -15 -5 0 -10 -7 -10 -15 0 -8 5 -15 10
-15 6 0 10 -19 10 -43 0 -24 5 -48 12 -55 17 -17 48 -15 48 3 0 8 -4 15 -10
15 -5 0 -10 18 -10 40 0 22 5 40 10 40 6 0 10 7 10 15 0 8 -4 15 -10 15 -5 0
-10 7 -10 15 0 8 -9 15 -20 15 -11 0 -20 -7 -20 -15z"/>
<path d="M7660 12576 c0 -8 -7 -16 -15 -20 -8 -3 -15 -10 -15 -16 0 -5 7 -10
15 -10 11 0 15 -12 15 -49 0 -35 4 -51 16 -55 25 -10 34 -7 34 9 0 8 -4 15
-10 15 -5 0 -10 18 -10 40 0 22 5 40 10 40 6 0 10 7 10 15 0 8 -4 15 -10 15
-5 0 -10 7 -10 15 0 8 -7 15 -15 15 -8 0 -15 -6 -15 -14z"/>
<path d="M2900 12489 c0 -55 3 -69 15 -69 11 0 15 12 15 51 0 42 3 52 20 56
33 9 23 29 -15 30 l-35 1 0 -69z"/>
<path d="M3009 12540 l-24 -21 43 6 c49 8 57 -6 10 -20 -74 -23 -62 -79 19
-82 l50 -1 -5 56 c-6 81 -43 105 -93 62z m61 -70 c0 -13 -7 -20 -18 -20 -26 0
-34 11 -21 27 17 20 39 16 39 -7z"/>
<path d="M3149 12539 c-44 -44 -9 -129 47 -115 19 5 25 3 22 -6 -3 -7 -20 -13
-38 -14 -41 0 -51 -19 -15 -28 30 -8 66 1 77 18 4 6 8 45 8 87 l0 76 -41 0
c-27 0 -48 -6 -60 -18z m66 -49 c0 -28 -4 -36 -21 -38 -26 -4 -38 31 -23 60
17 32 44 18 44 -22z"/>
<path d="M3450 12490 c0 -56 3 -70 15 -70 12 0 15 14 15 70 0 56 -3 70 -15 70
-12 0 -15 -14 -15 -70z"/>
<path d="M3600 12538 c-57 -61 19 -153 86 -103 20 15 18 16 -30 18 -48 3 -45
27 3 27 36 0 41 3 41 23 0 52 -63 74 -100 35z m65 -18 c4 -6 -5 -10 -19 -10
-14 0 -26 5 -26 10 0 6 9 10 19 10 11 0 23 -4 26 -10z"/>
<path d="M3748 12549 c-10 -5 -18 -20 -18 -33 0 -17 8 -25 33 -32 31 -9 48
-43 17 -35 -8 2 -26 6 -40 8 l-25 4 24 -20 c27 -24 59 -27 85 -8 27 20 16 49
-23 62 -19 6 -37 17 -39 23 -5 16 31 15 46 0 9 -9 15 -9 23 -1 8 8 4 15 -12
27 -27 18 -46 20 -71 5z"/>
<path d="M4095 12535 c-31 -30 -32 -65 -2 -93 27 -26 55 -28 83 -7 20 15 18
16 -30 18 -52 3 -43 27 9 27 39 0 46 3 41 16 -3 9 -6 19 -6 24 0 16 -31 40
-51 40 -11 0 -31 -11 -44 -25z m65 -15 c0 -5 -12 -10 -26 -10 -14 0 -23 4 -19
10 3 6 15 10 26 10 10 0 19 -4 19 -10z"/>
<path d="M4220 12489 c0 -55 3 -69 15 -69 11 0 15 12 15 51 0 42 3 52 20 56
33 9 23 29 -15 30 l-35 1 0 -69z"/>
<path d="M4330 12540 c-59 -59 20 -155 86 -105 20 15 18 16 -30 18 -48 3 -45
27 3 27 36 0 41 3 41 23 0 51 -63 74 -100 37z m65 -20 c4 -6 -5 -10 -19 -10
-14 0 -26 5 -26 10 0 6 9 10 19 10 11 0 23 -4 26 -10z"/>
<path d="M4623 12534 c-20 -20 -24 -31 -19 -57 11 -56 67 -76 106 -37 26 26
26 70 0 98 -27 29 -55 28 -87 -4z m65 -47 c3 -35 1 -38 -20 -35 -24 3 -35 34
-24 64 12 30 41 11 44 -29z"/>
<path d="M4848 12553 c-9 -2 -19 -11 -22 -20 -5 -13 0 -14 27 -9 48 9 55 -6
10 -19 -28 -8 -39 -17 -41 -33 -5 -36 14 -50 66 -50 l48 0 -6 60 c-7 72 -24
87 -82 71z m52 -78 c0 -9 -7 -18 -16 -22 -18 -7 -39 11 -30 26 11 17 46 13 46
-4z"/>
<path d="M5592 12543 c-49 -42 -24 -123 38 -123 24 0 65 29 44 31 -5 0 -22 2
-38 2 -52 3 -43 27 9 27 39 0 46 3 41 16 -3 9 -6 19 -6 24 0 15 -31 40 -50 40
-10 0 -27 -8 -38 -17z m58 -23 c0 -5 -12 -10 -26 -10 -14 0 -23 4 -19 10 3 6
15 10 26 10 10 0 19 -4 19 -10z"/>
<path d="M5710 12489 c0 -54 3 -69 14 -69 11 0 16 15 18 53 3 45 6 52 26 55
21 3 22 0 22 -52 0 -42 4 -56 14 -56 11 0 16 15 18 53 3 44 6 52 23 52 17 0
20 -8 23 -52 3 -45 6 -53 23 -53 16 0 19 7 19 39 0 77 -31 117 -72 92 -13 -8
-24 -9 -31 -3 -7 5 -31 10 -54 9 l-43 0 0 -68z"/>
<path d="M6112 12544 c-16 -11 -22 -25 -22 -54 0 -62 58 -92 100 -50 38 38 13
120 -38 120 -10 0 -28 -7 -40 -16z m63 -34 c9 -29 -4 -60 -25 -60 -10 0 -22 9
-25 20 -9 29 4 60 25 60 10 0 22 -9 25 -20z"/>
<path d="M6300 12557 c0 -2 9 -30 20 -62 24 -70 25 -95 4 -95 -17 0 -15 -21 3
-27 24 -8 65 68 89 162 11 43 -22 30 -41 -17 l-18 -43 -11 40 c-7 24 -19 41
-29 43 -9 2 -17 2 -17 -1z"/>
<path d="M6455 12535 c-27 -26 -30 -41 -16 -78 13 -33 63 -45 96 -23 32 21 34
73 5 104 -27 29 -55 28 -85 -3z m63 -48 c3 -35 1 -38 -20 -35 -24 3 -35 34
-24 64 12 30 41 11 44 -29z"/>
<path d="M6580 12506 c0 -68 15 -84 75 -84 l45 1 0 69 c0 53 -3 68 -14 68 -11
0 -16 -15 -18 -52 -3 -46 -6 -53 -25 -56 -22 -3 -23 0 -23 52 0 49 -2 56 -20
56 -18 0 -20 -7 -20 -54z"/>
<path d="M6730 12489 c0 -55 3 -69 15 -69 11 0 15 11 15 39 0 52 8 71 31 71
10 0 19 6 19 14 0 9 -13 13 -40 13 l-40 0 0 -68z"/>
<path d="M6900 12489 c0 -55 3 -69 15 -69 11 0 15 12 15 51 0 42 3 52 20 56
34 9 23 31 -15 31 l-35 0 0 -69z"/>
<path d="M7009 12539 c-48 -48 -2 -132 64 -115 41 10 34 34 -9 32 -22 -1 -39
4 -41 12 -3 8 9 12 41 12 39 0 46 3 46 20 0 11 -9 29 -20 40 -26 26 -55 25
-81 -1z m66 -19 c4 -6 -7 -10 -25 -10 -18 0 -29 4 -25 10 3 6 15 10 25 10 10
0 22 -4 25 -10z"/>
<path d="M7130 12463 c0 -86 1 -93 20 -93 15 0 20 7 20 29 0 24 3 28 23 24 34
-7 57 21 57 67 0 51 -19 68 -75 68 l-45 -1 0 -94z m86 42 c8 -34 -1 -55 -26
-55 -17 0 -20 6 -20 40 0 33 3 40 20 40 13 0 22 -9 26 -25z"/>
<path d="M7302 12544 c-16 -11 -22 -25 -22 -54 0 -67 69 -95 109 -44 27 35 26
59 -4 89 -28 29 -51 31 -83 9z m63 -54 c0 -29 -4 -36 -22 -38 -20 -3 -23 1
-23 31 0 38 7 49 30 45 10 -2 15 -15 15 -38z"/>
<path d="M7445 12540 c-23 -25 -13 -49 25 -56 33 -7 45 -18 35 -33 -3 -6 -17
-6 -36 1 -16 6 -32 8 -35 5 -11 -10 29 -37 55 -37 57 0 69 58 15 75 -17 6 -32
15 -34 20 -5 14 30 19 43 6 15 -15 27 -14 27 4 0 35 -67 46 -95 15z"/>
<path d="M7562 12493 c2 -55 6 -68 21 -71 15 -3 17 5 17 67 0 65 -2 71 -20 71
-19 0 -21 -5 -18 -67z"/>
<path d="M7752 12548 c-43 -21 -42 -94 2 -117 66 -36 122 39 78 106 -11 17
-54 23 -80 11z m53 -58 c0 -28 -4 -35 -20 -35 -13 0 -21 8 -23 23 -5 34 5 54
25 50 13 -2 18 -13 18 -38z"/>
<path d="M7870 12489 c0 -55 3 -69 15 -69 11 0 15 12 15 50 0 45 3 50 25 56
39 10 30 29 -15 30 l-40 1 0 -68z"/>
<path d="M7975 12530 c4 -17 13 -43 21 -58 18 -36 18 -72 -1 -72 -8 0 -15 -7
-15 -15 0 -8 4 -15 9 -15 28 0 42 18 62 78 12 37 25 71 30 77 15 16 10 35 -10
35 -14 0 -21 -10 -26 -32 -12 -53 -19 -56 -31 -13 -6 24 -18 41 -28 43 -15 3
-17 -1 -11 -28z"/>
<path d="M4560 12168 c-37 -40 -14 -128 34 -128 17 0 46 27 46 42 0 6 -9 0
-19 -13 -16 -20 -23 -22 -38 -13 -27 17 -39 58 -25 89 17 37 41 43 64 16 10
-13 18 -19 18 -14 0 13 -34 43 -48 43 -6 0 -20 -10 -32 -22z"/>
<path d="M4900 12115 c0 -43 2 -76 5 -73 7 7 8 138 1 145 -3 4 -6 -29 -6 -72z"/>
<path d="M5953 12183 c-7 -2 -13 -11 -13 -18 0 -7 -6 -16 -12 -18 -10 -4 -10
-6 0 -6 8 -1 12 -19 13 -53 l2 -53 6 48 c4 27 14 53 22 58 12 7 11 9 -3 9 -25
0 -12 28 15 33 20 4 20 4 2 5 -11 0 -26 -2 -32 -5z"/>
<path d="M4680 12095 c0 -32 2 -56 4 -54 8 7 10 98 3 105 -4 4 -7 -19 -7 -51z"/>
<path d="M4810 12130 c-25 -25 -25 -41 -2 -70 13 -17 24 -21 40 -16 12 4 22
12 22 18 0 6 -6 6 -15 -2 -24 -20 -45 -4 -45 34 0 40 27 57 47 30 11 -15 13
-16 13 -2 0 9 -7 19 -16 22 -22 8 -22 8 -44 -14z"/>
<path d="M4943 12139 c12 -7 18 -24 19 -57 l1 -47 4 43 c4 43 -9 72 -31 72 -6
0 -3 -5 7 -11z"/>
<path d="M5028 12139 c-12 -6 -18 -22 -18 -45 0 -27 5 -37 26 -46 23 -11 29
-10 45 11 23 28 24 40 3 69 -17 24 -30 27 -56 11z m52 -25 c17 -45 -18 -82
-48 -52 -25 25 -8 78 25 78 8 0 18 -12 23 -26z"/>
<path d="M5136 12134 c-30 -30 -10 -94 29 -94 21 0 45 29 45 55 0 26 -24 55
-45 55 -7 0 -21 -7 -29 -16z m52 -6 c30 -30 -2 -93 -36 -71 -21 13 -27 50 -12
69 15 17 32 18 48 2z"/>
<path d="M5253 12143 c-23 -9 -15 -42 12 -49 16 -4 25 -13 25 -25 0 -21 -20
-25 -38 -7 -9 9 -12 9 -12 1 0 -20 41 -26 58 -10 13 13 13 19 2 31 -7 9 -18
16 -26 16 -19 0 -28 20 -15 33 8 8 14 8 23 -1 7 -7 17 -12 23 -12 5 0 1 7 -9
15 -21 16 -24 16 -43 8z"/>
<path d="M5358 12139 c-25 -14 -24 -75 1 -89 30 -15 38 -12 13 6 -32 22 -27
34 13 34 39 0 46 17 19 44 -18 19 -23 19 -46 5z m41 -12 c14 -17 4 -27 -26
-27 -25 0 -29 10 -11 28 15 15 23 15 37 -1z"/>
<path d="M5491 12144 c-1 -6 6 -32 15 -58 15 -44 15 -48 -1 -66 -10 -11 -13
-20 -7 -20 6 0 18 13 27 30 17 33 20 54 6 46 -5 -4 -16 13 -24 36 -9 24 -16
38 -16 32z"/>
<path d="M5600 12130 c-11 -11 -20 -29 -20 -40 0 -19 46 -58 56 -47 3 3 -3 8
-14 11 -36 12 -40 67 -5 80 25 10 45 -14 41 -50 -2 -18 0 -30 4 -28 17 11 8
73 -11 84 -26 13 -28 13 -51 -10z"/>
<path d="M5702 12110 c-2 -44 10 -70 32 -70 5 0 2 6 -7 13 -9 7 -18 31 -20 57
l-4 45 -1 -45z"/>
<path d="M5758 12099 c-1 -28 0 -53 5 -56 4 -2 7 21 7 51 0 70 -7 73 -12 5z"/>
<path d="M5812 12090 c1 -53 2 -53 5 -10 2 25 11 50 20 57 13 10 13 12 -6 10
-19 -1 -21 -7 -19 -57z"/>
<path d="M6097 12132 c-10 -10 -17 -28 -17 -40 0 -37 49 -68 65 -42 3 6 -1 7
-10 4 -16 -6 -45 11 -45 27 0 5 16 9 35 9 27 0 35 4 34 18 0 10 -3 12 -6 5 -5
-15 -63 -18 -63 -4 0 16 29 33 45 27 9 -3 13 -2 10 4 -10 15 -30 12 -48 -8z"/>
<path d="M6203 12143 c-24 -9 -14 -41 17 -52 17 -5 30 -15 30 -21 0 -17 -29
-23 -45 -10 -9 8 -15 8 -15 2 0 -19 41 -25 58 -9 13 13 13 19 2 31 -7 9 -18
16 -26 16 -18 0 -28 20 -16 32 7 7 18 6 33 -2 23 -11 23 -10 5 4 -21 17 -24
17 -43 9z"/>
<path d="M5551 12124 c0 -11 3 -14 6 -6 3 7 2 16 -1 19 -3 4 -6 -2 -5 -13z"/>
<path d="M6003 12090 c0 -30 2 -43 4 -27 2 15 2 39 0 55 -2 15 -4 2 -4 -28z"/>
<path d="M348 10653 c-33 -34 -38 -45 -38 -86 l0 -47 45 0 45 0 0 -50 0 -50
-45 0 -45 0 0 -40 0 -40 45 0 45 0 0 -45 0 -45 40 0 40 0 0 135 0 135 50 0 50
0 0 -135 0 -135 40 0 40 0 0 45 0 45 45 0 45 0 0 40 0 40 -45 0 -45 0 0 50 0
50 45 0 45 0 0 45 c0 40 -5 52 -40 88 l-39 42 -1 -47 0 -48 -139 0 -140 0 -3
46 -3 45 -37 -38z"/>
<path d="M1820 10465 c0 -9 5 -15 11 -13 6 2 11 8 11 13 0 5 -5 11 -11 13 -6
2 -11 -4 -11 -13z"/>
<path d="M2120 10395 c0 -67 3 -85 14 -85 11 0 16 14 18 48 2 34 7 47 18 47
11 0 16 -13 18 -47 2 -34 7 -48 18 -48 10 0 14 13 14 49 0 54 -17 77 -50 66
-17 -5 -20 -2 -20 24 0 21 -5 31 -15 31 -12 0 -15 -16 -15 -85z"/>
<path d="M1190 10450 c-13 -13 -20 -33 -20 -60 0 -68 64 -106 103 -62 21 23
21 32 2 32 -8 0 -15 -4 -15 -9 0 -15 -32 -22 -46 -10 -18 15 -18 83 0 98 14
12 46 5 46 -10 0 -5 7 -9 15 -9 22 0 18 17 -7 34 -30 21 -54 20 -78 -4z"/>
<path d="M1900 10446 c0 -8 -6 -16 -12 -19 -10 -4 -10 -7 0 -18 6 -7 12 -30
12 -51 0 -26 5 -41 15 -45 21 -7 32 4 17 19 -16 16 -15 60 1 77 10 11 10 14 0
18 -7 3 -13 11 -13 19 0 8 -4 14 -10 14 -5 0 -10 -6 -10 -14z"/>
<path d="M1335 10416 c-40 -29 -14 -106 36 -106 45 0 66 71 31 103 -23 21 -42
21 -67 3z m55 -46 c0 -34 -15 -46 -35 -30 -18 15 -19 42 -4 57 18 18 39 3 39
-27z"/>
<path d="M1440 10368 c0 -32 4 -58 10 -58 6 0 10 17 10 38 0 21 5 43 12 50 19
19 38 -6 38 -49 0 -22 5 -39 10 -39 6 0 10 17 10 38 0 21 5 43 12 50 19 19 38
-6 38 -49 0 -22 5 -39 10 -39 11 0 14 109 3 111 -5 1 -41 3 -80 4 l-73 2 0
-59z"/>
<path d="M1630 10369 c0 -45 3 -59 14 -59 11 0 16 14 18 48 2 34 7 47 18 47
11 0 16 -13 18 -47 2 -34 7 -48 18 -48 10 0 14 12 14 43 0 48 5 58 26 50 9 -3
14 -21 14 -49 0 -32 4 -44 15 -44 16 0 20 44 9 87 -7 26 -39 39 -59 23 -8 -7
-15 -7 -19 -1 -4 5 -24 9 -46 9 l-40 0 0 -59z"/>
<path d="M1820 10370 c0 -47 3 -60 15 -60 12 0 15 13 15 60 0 47 -3 60 -15 60
-12 0 -15 -13 -15 -60z"/>
<path d="M2025 10414 c-10 -11 -15 -29 -13 -53 2 -29 8 -37 31 -45 21 -8 31
-6 44 7 9 9 14 20 10 24 -4 3 -13 1 -19 -5 -17 -17 -26 -15 -38 8 -8 14 -8 26
0 40 9 17 14 18 30 8 24 -15 37 -4 20 17 -16 20 -44 19 -65 -1z"/>
<path d="M2264 10416 c-23 -18 -10 -35 15 -19 14 9 21 9 30 0 8 -8 3 -14 -22
-21 -21 -8 -33 -18 -35 -33 -2 -13 0 -24 5 -24 4 -1 26 -3 48 -4 l40 -3 -4 46
c-5 70 -32 90 -77 58z m46 -71 c-7 -8 -16 -15 -21 -15 -5 0 -9 7 -9 15 0 9 9
15 21 15 18 0 19 -2 9 -15z"/>
<path d="M2360 10369 c0 -46 3 -59 15 -59 11 0 15 12 15 44 0 28 5 46 14 49
21 8 26 -2 26 -50 0 -32 4 -43 15 -43 11 0 15 12 15 49 0 56 -10 68 -62 68
l-38 1 0 -59z"/>
<path d="M2505 10413 c-8 -8 -15 -30 -15 -48 0 -39 27 -60 61 -50 18 6 19 5
10 -14 -13 -24 -15 -25 -42 -11 -15 8 -19 7 -19 -4 0 -21 43 -31 69 -16 18 9
21 20 21 83 l0 73 -35 1 c-20 1 -42 -6 -50 -14z m65 -43 c0 -22 -25 -44 -40
-35 -14 9 -13 62 3 68 17 6 37 -12 37 -33z"/>
<path d="M2627 10412 c-10 -10 -17 -30 -17 -44 0 -48 62 -77 91 -41 13 15 12
16 -9 10 -27 -6 -52 0 -52 14 0 5 16 9 35 9 28 0 35 4 35 19 0 24 -26 51 -49
51 -10 0 -25 -8 -34 -18z m51 -20 c2 -7 -6 -12 -17 -12 -21 0 -27 11 -14 24 9
9 26 2 31 -12z"/>
<path d="M2746 10414 c-24 -23 -20 -33 19 -50 19 -8 35 -19 35 -24 0 -13 -23
-13 -37 1 -6 6 -17 9 -23 7 -20 -6 17 -38 44 -38 24 0 46 17 46 37 0 7 -17 20
-37 28 -26 11 -33 19 -26 26 8 8 17 7 31 -2 27 -17 43 -2 18 17 -26 18 -51 18
-70 -2z"/>
<path d="M1463 9935 c0 -33 2 -45 4 -27 2 18 2 45 0 60 -2 15 -4 0 -4 -33z"/>
<path d="M1713 9935 c0 -33 2 -45 4 -27 2 18 2 45 0 60 -2 15 -4 0 -4 -33z"/>
<path d="M2353 9935 c0 -33 2 -45 4 -27 2 18 2 45 0 60 -2 15 -4 0 -4 -33z"/>
<path d="M1638 9963 c-2 -5 -1 -26 2 -48 l6 -40 5 43 c4 39 -4 65 -13 45z"/>
<path d="M2023 9920 c0 -25 2 -35 4 -22 2 12 2 32 0 45 -2 12 -4 2 -4 -23z"/>
<path d="M2183 9925 c0 -22 2 -30 4 -17 2 12 2 30 0 40 -3 9 -5 -1 -4 -23z"/>
<path d="M2233 9920 c0 -25 2 -35 4 -22 2 12 2 32 0 45 -2 12 -4 2 -4 -23z"/>
<path d="M1683 9915 c0 -22 2 -30 4 -17 2 12 2 30 0 40 -3 9 -5 -1 -4 -23z"/>
<path d="M1412 9920 c0 -14 2 -19 5 -12 2 6 2 18 0 25 -3 6 -5 1 -5 -13z"/>
<path d="M1752 9920 c0 -14 2 -19 5 -12 2 6 2 18 0 25 -3 6 -5 1 -5 -13z"/>
<path d="M2392 9920 c0 -14 2 -19 5 -12 2 6 2 18 0 25 -3 6 -5 1 -5 -13z"/>
<path d="M1320 9918 c0 -5 14 -8 30 -8 17 0 30 3 30 8 0 4 -13 7 -30 7 -16 0
-30 -3 -30 -7z"/>
<path d="M2481 9904 c0 -11 3 -14 6 -6 3 7 2 16 -1 19 -3 4 -6 -2 -5 -13z"/>
<path d="M1966 9897 c3 -10 9 -15 12 -12 3 3 0 11 -7 18 -10 9 -11 8 -5 -6z"/>
<path d="M1463 9430 c0 -30 2 -43 4 -27 2 15 2 39 0 55 -2 15 -4 2 -4 -28z"/>
<path d="M2353 9430 c0 -30 2 -43 4 -27 2 15 2 39 0 55 -2 15 -4 2 -4 -28z"/>
<path d="M2183 9415 c0 -22 2 -30 4 -17 2 12 2 30 0 40 -3 9 -5 -1 -4 -23z"/>
<path d="M1667 9433 c-3 -5 -1 -17 4 -28 7 -17 8 -17 8 8 1 27 -4 34 -12 20z"/>
<path d="M2972 9420 c0 -14 2 -19 5 -12 2 6 2 18 0 25 -3 6 -5 1 -5 -13z"/>
<path d="M1320 9420 c0 -5 5 -10 11 -10 5 0 7 5 4 10 -3 6 -8 10 -11 10 -2 0
-4 -4 -4 -10z"/>
<path d="M1411 9414 c0 -11 3 -14 6 -6 3 7 2 16 -1 19 -3 4 -6 -2 -5 -13z"/>
<path d="M2151 9414 c0 -11 3 -14 6 -6 3 7 2 16 -1 19 -3 4 -6 -2 -5 -13z"/>
<path d="M2430 9413 c0 -12 3 -14 8 -7 4 7 18 14 32 17 21 4 20 4 -7 6 -25 1
-33 -3 -33 -16z"/>
<path d="M2527 9417 c-3 -8 1 -14 8 -14 7 0 11 6 8 14 -3 7 -6 13 -8 13 -2 0
-5 -6 -8 -13z"/>
<path d="M2653 9423 c9 -2 25 -2 35 0 9 3 1 5 -18 5 -19 0 -27 -2 -17 -5z"/>
<path d="M2913 9423 c9 -2 25 -2 35 0 9 3 1 5 -18 5 -19 0 -27 -2 -17 -5z"/>
<path d="M3180 9422 c0 -4 16 -6 35 -4 19 2 35 6 35 8 0 2 -16 4 -35 4 -19 0
-35 -4 -35 -8z"/>
<path d="M3691 9414 c0 -11 3 -14 6 -6 3 7 2 16 -1 19 -3 4 -6 -2 -5 -13z"/>
<path d="M2502 7985 c-1 -94 -6 -145 -14 -153 -15 -15 -1464 -17 -1488 -2 -12
7 -16 40 -21 142 l-6 133 1 -133 c1 -120 3 -135 20 -148 17 -12 136 -14 751
-14 701 0 733 1 749 19 14 16 16 38 13 157 l-3 139 -2 -140z"/>
<path d="M2806 8026 c10 -8 21 -12 24 -10 5 6 -21 24 -34 24 -6 0 -1 -6 10
-14z"/>
<path d="M3193 7985 c0 -33 2 -45 4 -27 2 18 2 45 0 60 -2 15 -4 0 -4 -33z"/>
<path d="M2760 7981 c0 -17 4 -32 8 -35 4 -2 6 11 4 30 -5 42 -12 45 -12 5z"/>
<path d="M2870 7999 c-12 -9 -12 -10 3 -5 26 9 46 -5 21 -15 -18 -7 -18 -8 0
-8 12 -1 16 -6 13 -16 -4 -8 -2 -17 3 -20 14 -9 12 49 -2 63 -15 15 -19 15
-38 1z"/>
<path d="M2940 7971 c0 -23 2 -41 4 -41 8 0 12 71 4 76 -4 3 -8 -13 -8 -35z"/>
<path d="M2977 8003 c6 -4 13 -24 16 -43 4 -34 4 -33 3 4 -1 26 -6 41 -16 43
-10 3 -11 2 -3 -4z"/>
<path d="M3042 7998 c-31 -31 -1 -80 36 -58 14 8 13 9 -8 7 -17 -1 -25 4 -28
17 -6 28 14 42 35 25 16 -13 17 -12 4 4 -16 20 -23 21 -39 5z"/>
<path d="M3146 7995 c19 -14 18 -14 -3 -15 -13 0 -23 6 -23 13 0 6 -5 4 -11
-5 -13 -23 5 -58 29 -57 16 1 16 2 0 6 -28 7 -22 33 7 33 14 0 25 4 25 8 0 11
-22 32 -34 32 -5 0 -1 -7 10 -15z"/>
<path d="M2863 7956 c1 -11 9 -21 17 -23 10 -3 11 -2 4 4 -6 4 -14 15 -17 23
-5 11 -6 9 -4 -4z"/>
<path d="M2806 7944 c-11 -8 -16 -14 -10 -14 13 0 39 18 34 24 -3 2 -14 -2
-24 -10z"/>
<path d="M3469 6862 c11 -8 11 -10 0 -14 -10 -3 -9 -6 3 -10 11 -5 15 -2 14
10 -2 9 -9 18 -17 20 -12 3 -12 2 0 -6z"/>
<path d="M4223 6820 c0 -30 2 -43 4 -27 2 15 2 39 0 55 -2 15 -4 2 -4 -28z"/>
<path d="M3813 6815 c0 -27 2 -38 4 -22 2 15 2 37 0 50 -2 12 -4 0 -4 -28z"/>
<path d="M3910 6856 c0 -2 9 -6 20 -9 11 -3 18 -1 14 4 -5 9 -34 13 -34 5z"/>
<path d="M4110 6841 c0 -14 -8 -21 -27 -24 l-28 -4 27 -2 c19 -1 28 -7 31 -23
2 -13 5 -2 6 25 0 26 -1 47 -4 47 -3 0 -5 -9 -5 -19z"/>
<path d="M4353 6815 c0 -27 2 -38 4 -22 2 15 2 37 0 50 -2 12 -4 0 -4 -28z"/>
<path d="M4757 6852 c6 -4 13 -25 16 -47 l4 -40 1 42 c2 30 7 43 20 46 9 3 1
5 -18 6 -19 0 -30 -3 -23 -7z"/>
<path d="M5291 6813 c1 -27 4 -38 6 -26 2 13 13 24 26 26 l22 4 -22 2 c-13 0
-23 7 -23 15 0 8 10 17 23 19 19 4 18 4 -5 6 -27 1 -28 -1 -27 -46z"/>
<path d="M7100 6815 c0 -40 2 -45 23 -44 16 1 18 2 5 6 -13 3 -18 14 -18 38 0
24 5 35 18 38 13 4 11 5 -5 6 -21 1 -23 -4 -23 -44z"/>
<path d="M3682 6820 c0 -19 2 -27 5 -17 2 9 2 25 0 35 -3 9 -5 1 -5 -18z"/>
<path d="M4019 6844 c-3 -20 3 -59 9 -66 4 -4 7 9 6 28 -1 31 -12 60 -15 38z"/>
<path d="M6269 6844 c-3 -20 3 -59 9 -66 4 -4 7 9 6 28 -1 31 -12 60 -15 38z"/>
<path d="M3422 6820 c0 -14 2 -19 5 -12 2 6 2 18 0 25 -3 6 -5 1 -5 -13z"/>
<path d="M4393 6805 c0 -22 2 -30 4 -17 2 12 2 30 0 40 -3 9 -5 -1 -4 -23z"/>
<path d="M4480 6836 c0 -2 9 -6 20 -9 11 -3 18 -1 14 4 -5 9 -34 13 -34 5z"/>
<path d="M4840 6836 c0 -2 7 -7 16 -10 8 -3 12 -2 9 4 -6 10 -25 14 -25 6z"/>
<path d="M4957 6833 c6 -4 13 -22 16 -38 4 -27 5 -27 3 4 0 21 -7 36 -16 38
-10 3 -11 2 -3 -4z"/>
<path d="M5055 6829 c-11 -16 -1 -19 13 -3 7 8 8 14 3 14 -5 0 -13 -5 -16 -11z"/>
<path d="M5423 6805 c0 -22 2 -30 4 -17 2 12 2 30 0 40 -3 9 -5 -1 -4 -23z"/>
<path d="M6070 6836 c0 -2 7 -7 16 -10 8 -3 12 -2 9 4 -6 10 -25 14 -25 6z"/>
<path d="M6112 6815 c0 -16 2 -22 5 -12 2 9 2 23 0 30 -3 6 -5 -1 -5 -18z"/>
<path d="M6628 6833 c7 -3 16 -2 19 1 4 3 -2 6 -13 5 -11 0 -14 -3 -6 -6z"/>
<path d="M6748 6833 c7 -3 16 -2 19 1 4 3 -2 6 -13 5 -11 0 -14 -3 -6 -6z"/>
<path d="M6782 6815 c0 -16 2 -22 5 -12 2 9 2 23 0 30 -3 6 -5 -1 -5 -18z"/>
<path d="M7350 6836 c0 -2 7 -7 16 -10 8 -3 12 -2 9 4 -6 10 -25 14 -25 6z"/>
<path d="M3631 6814 c0 -11 3 -14 6 -6 3 7 2 16 -1 19 -3 4 -6 -2 -5 -13z"/>
<path d="M4932 6800 c0 -19 2 -27 5 -17 2 9 2 25 0 35 -3 9 -5 1 -5 -18z"/>
<path d="M4271 6804 c0 -11 3 -14 6 -6 3 7 2 16 -1 19 -3 4 -6 -2 -5 -13z"/>
<path d="M4432 6795 c0 -16 2 -22 5 -12 2 9 2 23 0 30 -3 6 -5 -1 -5 -18z"/>
<path d="M5012 6795 c0 -16 2 -22 5 -12 2 9 2 23 0 30 -3 6 -5 -1 -5 -18z"/>
<path d="M6000 6810 l-25 -8 28 -1 c15 -1 27 4 27 9 0 6 -1 10 -2 9 -2 -1 -14
-5 -28 -9z"/>
<path d="M3472 6801 c-11 -7 -11 -9 0 -14 9 -3 15 1 15 9 0 8 -1 14 -1 14 -1
0 -7 -4 -14 -9z"/>
<path d="M4833 6803 c9 -2 23 -2 30 0 6 3 -1 5 -18 5 -16 0 -22 -2 -12 -5z"/>
<path d="M7362 6784 c-7 -8 -8 -14 -3 -14 10 0 25 19 20 25 -2 1 -10 -3 -17
-11z"/>
<path d="M4157 6779 c7 -7 15 -10 18 -7 3 3 -2 9 -12 12 -14 6 -15 5 -6 -5z"/>
<path d="M4500 6780 c-9 -6 -10 -10 -3 -10 6 0 15 5 18 10 8 12 4 12 -15 0z"/>
<path d="M5675 6780 c3 -5 8 -10 11 -10 2 0 4 5 4 10 0 6 -5 10 -11 10 -5 0
-7 -4 -4 -10z"/>
<path d="M6080 6780 c-9 -6 -10 -10 -3 -10 6 0 15 5 18 10 8 12 4 12 -15 0z"/>
<path d="M6585 6780 c-16 -7 -17 -9 -3 -9 9 -1 20 4 23 9 7 11 7 11 -20 0z"/>
<path d="M3573 6773 c9 -2 25 -2 35 0 9 3 1 5 -18 5 -19 0 -27 -2 -17 -5z"/>
<path d="M3723 6773 c9 -2 25 -2 35 0 9 3 1 5 -18 5 -19 0 -27 -2 -17 -5z"/>
<path d="M6443 6530 c0 -30 2 -43 4 -27 2 15 2 39 0 55 -2 15 -4 2 -4 -28z"/>
<path d="M4188 6563 c7 -3 16 -2 19 1 4 3 -2 6 -13 5 -11 0 -14 -3 -6 -6z"/>
<path d="M4758 6563 c6 -2 18 -2 25 0 6 3 1 5 -13 5 -14 0 -19 -2 -12 -5z"/>
<path d="M5433 6563 c9 -2 23 -2 30 0 6 3 -1 5 -18 5 -16 0 -22 -2 -12 -5z"/>
<path d="M5503 6525 c0 -27 2 -38 4 -22 2 15 2 37 0 50 -2 12 -4 0 -4 -28z"/>
<path d="M5733 6563 c9 -2 25 -2 35 0 9 3 1 5 -18 5 -19 0 -27 -2 -17 -5z"/>
<path d="M6360 6525 c0 -40 2 -45 23 -44 16 1 18 2 5 6 -26 6 -22 31 5 36 l22
4 -22 2 c-27 1 -31 27 -5 34 13 4 11 5 -5 6 -21 1 -23 -4 -23 -44z"/>
<path d="M3909 6554 c-3 -20 3 -59 9 -66 4 -4 7 9 6 28 -1 31 -12 60 -15 38z"/>
<path d="M7119 6554 c-3 -20 3 -59 9 -66 4 -4 7 9 6 28 -1 31 -12 60 -15 38z"/>
<path d="M3765 6540 c-3 -6 1 -7 9 -4 18 7 21 14 7 14 -6 0 -13 -4 -16 -10z"/>
<path d="M3960 6546 c0 -2 7 -7 16 -10 8 -3 12 -2 9 4 -6 10 -25 14 -25 6z"/>
<path d="M4027 6543 c-3 -5 5 -8 18 -8 13 0 21 3 18 8 -2 4 -10 7 -18 7 -8 0
-16 -3 -18 -7z"/>
<path d="M4253 6515 c0 -22 2 -30 4 -17 2 12 2 30 0 40 -3 9 -5 -1 -4 -23z"/>
<path d="M4288 6543 c7 -3 16 -2 19 1 4 3 -2 6 -13 5 -11 0 -14 -3 -6 -6z"/>
<path d="M4422 6525 c0 -16 2 -22 5 -12 2 9 2 23 0 30 -3 6 -5 -1 -5 -18z"/>
<path d="M4463 6515 c0 -22 2 -30 4 -17 2 12 2 30 0 40 -3 9 -5 -1 -4 -23z"/>
<path d="M4532 6536 c7 -8 15 -12 17 -11 5 6 -10 25 -20 25 -5 0 -4 -6 3 -14z"/>
<path d="M4873 6515 c0 -22 2 -30 4 -17 2 12 2 30 0 40 -3 9 -5 -1 -4 -23z"/>
<path d="M4917 6543 c-3 -5 5 -8 18 -8 13 0 21 3 18 8 -2 4 -10 7 -18 7 -8 0
-16 -3 -18 -7z"/>
<path d="M5133 6510 c0 -25 2 -35 4 -22 2 12 2 32 0 45 -2 12 -4 2 -4 -23z"/>
<path d="M5835 6540 c-3 -6 1 -7 9 -4 18 7 21 14 7 14 -6 0 -13 -4 -16 -10z"/>
<path d="M5933 6515 c0 -22 2 -30 4 -17 2 12 2 30 0 40 -3 9 -5 -1 -4 -23z"/>
<path d="M6163 6515 c0 -22 2 -30 4 -17 2 12 2 30 0 40 -3 9 -5 -1 -4 -23z"/>
<path d="M6603 6510 c0 -25 2 -35 4 -22 2 12 2 32 0 45 -2 12 -4 2 -4 -23z"/>
<path d="M6910 6546 c0 -2 7 -7 16 -10 8 -3 12 -2 9 4 -6 10 -25 14 -25 6z"/>
<path d="M3801 6514 c0 -11 3 -14 6 -6 3 7 2 16 -1 19 -3 4 -6 -2 -5 -13z"/>
<path d="M4206 6522 c6 -4 14 -14 17 -22 4 -10 6 -8 6 8 1 15 -5 22 -16 22
-11 0 -14 -3 -7 -8z"/>
<path d="M4343 6523 c9 -2 25 -2 35 0 9 3 1 5 -18 5 -19 0 -27 -2 -17 -5z"/>
<path d="M4758 6523 c6 -2 18 -2 25 0 6 3 1 5 -13 5 -14 0 -19 -2 -12 -5z"/>
<path d="M5081 6514 c0 -11 3 -14 6 -6 3 7 2 16 -1 19 -3 4 -6 -2 -5 -13z"/>
<path d="M5338 6513 c-4 -16 -1 -18 23 -15 19 3 29 0 29 -9 0 -7 2 -10 5 -7
11 11 -7 37 -22 31 -8 -3 -18 0 -23 6 -5 9 -9 7 -12 -6z"/>
<path d="M5433 6523 c9 -2 23 -2 30 0 6 3 -1 5 -18 5 -16 0 -22 -2 -12 -5z"/>
<path d="M6111 6514 c0 -11 3 -14 6 -6 3 7 2 16 -1 19 -3 4 -6 -2 -5 -13z"/>
<path d="M3968 6513 c7 -3 16 -2 19 1 4 3 -2 6 -13 5 -11 0 -14 -3 -6 -6z"/>
<path d="M5848 6513 c6 -2 18 -2 25 0 6 3 1 5 -13 5 -14 0 -19 -2 -12 -5z"/>
<path d="M6830 6511 c-24 -7 -24 -8 6 -12 24 -4 31 -2 27 8 -3 7 -6 13 -7 12
0 -1 -12 -4 -26 -8z"/>
<path d="M4532 6494 c-7 -8 -8 -14 -3 -14 10 0 25 19 20 25 -2 1 -10 -3 -17
-11z"/>
<path d="M3767 6489 c7 -7 15 -10 18 -7 3 3 -2 9 -12 12 -14 6 -15 5 -6 -5z"/>
<path d="M4050 6490 c-9 -6 -10 -10 -3 -10 6 0 15 5 18 10 8 12 4 12 -15 0z"/>
<path d="M4940 6490 c-9 -6 -10 -10 -3 -10 6 0 15 5 18 10 8 12 4 12 -15 0z"/>
<path d="M10024 1108 c-79 -38 -24 -161 56 -128 57 24 60 103 4 129 -29 13
-32 13 -60 -1z"/>
<path d="M7345 995 c-14 -13 -25 -33 -25 -45 0 -16 -6 -20 -35 -20 -25 0 -44
-8 -60 -25 -24 -24 -25 -27 -25 -185 0 -158 1 -161 25 -185 16 -17 35 -25 60
-25 29 0 35 -4 35 -20 0 -12 11 -32 25 -45 24 -25 26 -25 215 -25 189 0 191 0
215 25 14 13 25 33 25 45 0 16 6 20 35 20 25 0 44 8 60 25 24 24 25 27 25 185
0 158 -1 161 -25 185 -16 17 -35 25 -60 25 -29 0 -35 4 -35 20 0 12 -11 32
-25 45 -24 25 -26 25 -215 25 -189 0 -191 0 -215 -25z m395 -275 l0 -240 -180
0 -180 0 0 240 0 240 180 0 180 0 0 -240z m-420 0 l0 -150 -30 0 -30 0 0 150
0 150 30 0 30 0 0 -150z m540 0 l0 -150 -30 0 -30 0 0 150 0 150 30 0 30 0 0
-150z"/>
<path d="M7553 808 c-35 -12 -47 -34 -13 -25 19 5 20 0 20 -74 0 -64 3 -79 15
-79 12 0 15 17 15 95 0 52 -1 95 -2 94 -2 -1 -18 -6 -35 -11z"/>
<path d="M9637 1006 c-101 -28 -186 -120 -207 -223 -22 -103 12 -206 91 -277
92 -83 217 -100 327 -45 110 54 162 142 162 268 0 190 -188 329 -373 277z
m153 -88 c55 -37 85 -108 85 -198 0 -85 -22 -139 -75 -184 -58 -48 -106 -47
-164 5 -130 113 -69 399 84 399 22 0 51 -9 70 -22z"/>
<path d="M5252 853 l-143 -128 40 -3 41 -3 0 -120 0 -119 75 0 75 0 0 90 0 90
60 0 60 0 0 -90 0 -90 75 0 75 0 0 119 0 120 41 3 40 3 -139 125 c-77 68 -144
126 -149 127 -5 2 -73 -54 -151 -124z"/>
<path d="M960 835 l-115 -115 117 -117 c116 -116 117 -117 138 -98 l21 19 -83
83 -83 83 183 0 182 0 0 30 0 30 -182 0 -183 0 83 83 c80 80 82 84 64 100 -10
9 -21 17 -23 17 -2 0 -56 -52 -119 -115z"/>
</g>
</svg>
